{"glyphs":{"0":{"ha":803,"x_min":64,"x_max":738,"o":"m 64 500 q 151 881 64 747 q 401 1014 239 1014 q 652 880 567 1014 q 738 486 738 746 q 650 118 738 249 q 401 -12 563 -12 q 151 120 239 -12 q 64 500 64 253 m 281 782 q 269 500 269 668 q 280 213 269 285 q 326 106 290 142 q 403 75 354 75 q 484 113 451 75 q 522 218 517 151 q 531 328 528 264 q 533 458 533 393 l 533 500 q 528 668 533 574 q 522 782 522 763 q 484 888 515 851 q 401 925 453 925 q 281 782 296 925 z "},"1":{"ha":803,"x_min":118,"x_max":524,"o":"m 118 858 q 231 897 181 878 q 318 931 282 915 q 411 975 367 951 q 524 1040 456 999 l 515 868 q 514 742 515 792 q 508 518 508 542 q 510 413 508 483 q 511 304 511 342 q 518 133 511 281 q 521 0 521 75 q 460 3 493 0 q 408 6 426 6 q 351 3 390 6 q 297 0 313 0 l 307 153 q 310 355 307 225 q 314 506 314 485 l 310 808 l 171 728 l 147 783 l 118 858 z "},"2":{"ha":803,"x_min":75,"x_max":707,"o":"m 75 136 q 504 728 504 424 q 465 863 504 810 q 368 915 426 915 q 271 859 313 915 q 229 725 229 803 l 229 706 l 218 700 l 165 757 l 100 817 q 129 878 118 858 q 158 918 140 897 q 400 1015 249 1015 q 619 936 533 1015 q 706 733 706 857 q 610 472 706 604 q 304 172 515 339 l 414 171 l 479 171 q 607 175 547 171 q 707 185 667 182 q 702 133 704 156 q 700 74 700 110 l 704 0 q 554 1 628 0 q 393 6 481 3 q 228 3 339 6 q 75 0 118 0 l 78 64 l 75 136 z "},"3":{"ha":803,"x_min":72,"x_max":703,"o":"m 72 94 q 103 138 88 115 q 118 163 111 150 q 142 203 131 181 q 164 249 154 225 l 179 247 q 333 82 213 82 q 457 139 413 82 q 501 296 501 196 q 457 431 501 382 q 335 479 413 479 q 296 478 303 479 q 265 468 276 471 q 268 494 268 481 q 269 517 268 508 q 267 546 269 529 q 264 575 265 563 l 310 569 q 424 618 383 569 q 464 757 464 667 q 433 881 464 838 q 344 925 401 925 q 256 880 289 925 q 224 754 224 835 l 208 751 q 186 782 197 767 q 165 804 181 789 q 99 865 140 832 q 385 1017 183 1017 q 586 949 510 1017 q 663 769 663 881 q 634 658 663 708 q 553 574 606 607 q 527 558 538 564 q 482 542 517 553 q 646 457 589 521 q 703 294 703 393 q 600 74 703 161 q 340 -14 497 -14 q 72 94 171 -14 z "},"4":{"ha":803,"x_min":54,"x_max":744,"o":"m 54 392 q 171 551 135 500 q 258 681 207 603 q 349 825 310 760 q 449 1001 388 890 q 499 997 476 999 q 542 996 521 996 q 635 1001 578 996 q 630 841 635 933 q 625 697 625 749 l 622 513 l 624 411 q 696 413 656 411 q 743 415 736 415 l 740 346 q 740 306 740 324 q 744 249 740 289 q 682 254 721 251 q 619 257 643 257 l 619 238 q 623 144 619 186 q 636 0 626 101 q 575 1 600 0 q 525 4 550 3 q 464 2 501 4 q 415 0 426 0 q 431 206 431 119 l 429 258 l 358 258 l 278 257 q 179 251 244 257 q 60 246 114 246 l 60 279 q 54 392 60 332 m 307 588 q 256 510 285 556 q 193 410 228 465 l 339 407 l 429 408 l 429 524 l 429 642 l 429 703 l 428 764 l 307 588 z "},"5":{"ha":803,"x_min":69,"x_max":703,"o":"m 69 88 q 92 123 83 108 q 111 156 101 138 q 150 244 128 189 l 164 243 q 333 75 211 75 q 454 140 407 75 q 501 313 501 206 q 460 456 501 400 q 351 511 418 511 q 281 497 311 511 q 218 447 251 483 q 154 479 188 468 l 165 543 q 174 697 174 614 q 167 808 174 700 q 161 1001 161 917 q 281 999 221 1001 q 411 996 340 997 q 541 999 454 996 q 663 1001 628 1001 l 658 893 l 661 813 q 525 817 599 813 q 414 821 451 821 l 274 818 l 271 579 q 347 607 319 600 q 410 614 374 614 q 620 528 538 614 q 703 313 703 443 q 601 77 703 167 q 335 -12 499 -12 q 192 10 250 -12 q 69 88 133 32 z "},"6":{"ha":803,"x_min":76,"x_max":729,"o":"m 606 997 l 618 943 l 638 885 l 626 876 q 572 905 599 896 q 515 914 546 914 q 341 804 411 914 q 271 525 271 694 q 353 600 310 578 q 458 622 396 622 q 651 533 574 622 q 729 313 729 444 q 644 78 729 169 q 425 -12 560 -12 q 166 99 256 -12 q 76 424 76 211 q 204 840 76 667 q 511 1014 332 1014 q 560 1011 542 1014 q 606 997 578 1008 m 414 517 q 274 290 274 517 q 308 130 274 189 q 401 71 342 71 q 499 126 464 71 q 535 279 535 181 q 414 517 535 517 z "},"7":{"ha":803,"x_min":61,"x_max":765,"o":"m 61 0 q 157 154 85 38 q 279 354 217 251 q 400 563 360 493 q 544 821 461 671 l 396 819 q 215 808 372 819 q 75 803 138 803 q 82 900 82 860 q 74 1001 82 946 q 281 997 172 1001 q 421 992 389 992 q 567 997 451 992 q 765 1001 682 1001 q 678 844 721 922 q 603 706 665 822 q 422 351 489 493 q 353 200 378 258 q 271 0 321 125 q 213 3 244 0 q 165 6 181 6 q 113 3 149 6 q 61 0 76 0 z "},"8":{"ha":803,"x_min":74,"x_max":728,"o":"m 271 543 q 110 763 110 601 q 190 943 110 874 q 401 1013 271 1013 q 611 943 531 1013 q 692 763 692 874 q 533 543 692 600 q 577 529 557 538 q 610 514 597 521 q 697 418 667 478 q 728 285 728 358 q 638 68 728 151 q 401 -15 547 -15 q 165 68 256 -15 q 74 285 74 151 q 104 418 74 360 q 193 514 135 476 q 226 529 208 522 q 271 543 243 536 m 401 926 q 322 883 350 926 q 294 758 294 840 q 401 597 294 597 q 508 753 508 597 q 401 926 508 926 m 401 507 q 303 451 338 507 q 269 289 269 394 q 304 131 269 188 q 401 74 339 74 q 499 130 464 74 q 533 289 533 186 q 499 451 533 394 q 401 507 465 507 z "},"9":{"ha":803,"x_min":72,"x_max":726,"o":"m 199 3 l 186 56 l 165 113 l 175 122 q 228 94 203 103 q 285 86 254 86 q 463 194 392 86 q 533 475 533 303 q 449 400 492 422 q 340 378 406 378 q 149 467 225 378 q 72 689 72 556 q 161 921 72 828 q 385 1014 250 1014 q 636 899 546 1014 q 726 576 726 783 q 602 158 726 328 q 296 -12 478 -12 q 199 3 250 -12 m 403 926 q 267 703 267 926 q 389 482 267 482 q 493 536 454 482 q 532 685 532 590 q 497 862 532 797 q 403 926 463 926 z "}," ":{"ha":403,"x_min":0,"x_max":0,"o":""},"!":{"ha":342,"x_min":60,"x_max":300,"o":"m 68 97 q 101 177 68 144 q 181 210 133 210 q 259 177 226 210 q 292 96 292 144 q 260 18 292 50 q 181 -14 228 -14 q 101 19 133 -14 q 68 97 68 51 m 142 276 l 63 858 l 60 906 q 182 1018 60 1018 q 269 988 238 1018 q 300 906 300 958 l 296 858 l 218 276 l 142 276 z "},"\"":{"ha":643,"x_min":21,"x_max":599,"o":"m 21 532 l 135 892 q 181 994 161 972 q 251 1017 201 1017 q 313 989 288 1017 q 338 921 338 961 q 308 842 338 888 l 82 500 q 21 532 57 522 m 283 532 l 396 892 q 442 994 422 972 q 513 1017 463 1017 q 574 989 549 1017 q 599 921 599 961 q 569 842 599 888 l 344 500 q 316 519 329 513 q 283 532 303 526 z "},"#":{"ha":876,"x_min":53,"x_max":758,"o":"m 53 297 l 71 381 l 231 381 l 282 619 l 121 619 l 139 703 l 299 703 l 360 990 l 443 990 l 382 703 l 515 703 l 576 990 l 660 990 l 599 703 l 758 703 l 742 619 l 582 619 l 531 381 l 690 381 l 672 297 l 513 297 l 451 10 l 368 10 l 429 297 l 296 297 l 235 10 l 151 10 l 213 297 l 53 297 m 314 381 l 447 381 l 499 619 l 364 619 l 314 381 z "},"$":{"ha":700,"x_min":29,"x_max":651,"o":"m 29 60 l 56 142 q 65 181 60 161 q 74 228 69 200 l 89 235 q 142 151 114 179 q 211 97 176 114 q 294 81 246 81 l 294 426 q 51 719 51 513 q 99 879 51 808 q 226 981 146 950 q 260 991 244 988 q 299 997 275 994 l 299 1093 l 388 1093 l 388 1006 l 438 1008 q 636 939 535 1008 q 617 901 625 918 q 606 874 610 883 q 590 829 601 864 q 578 794 582 808 l 563 794 q 545 827 553 817 q 524 853 538 838 q 453 904 493 889 q 426 911 442 908 q 388 914 411 914 l 386 615 q 484 566 465 576 q 542 529 503 556 q 651 315 651 456 q 607 153 651 229 q 483 33 563 78 q 440 13 460 19 q 383 -3 421 6 l 383 -122 l 293 -122 l 293 -12 q 232 -10 251 -12 q 185 0 201 -3 q 29 60 108 17 m 385 374 l 385 103 q 469 244 469 153 q 453 311 469 286 q 385 374 436 336 m 296 671 l 297 886 q 236 778 236 846 q 260 706 236 729 q 277 687 267 696 q 296 671 288 678 z "},"%":{"ha":1107,"x_min":49,"x_max":1057,"o":"m 186 0 l 821 1001 q 871 996 853 996 q 919 1001 888 996 l 285 0 q 258 3 272 3 q 236 4 244 3 q 216 4 225 4 q 186 0 207 4 m 49 775 q 122 947 49 876 q 303 1018 196 1018 q 484 948 411 1018 q 557 775 557 878 q 485 601 557 671 q 303 532 413 532 q 122 601 196 532 q 49 775 49 671 m 549 226 q 622 399 549 329 q 803 469 694 469 q 983 400 910 469 q 1057 226 1057 331 q 985 53 1057 122 q 803 -17 913 -17 q 622 53 696 -17 q 549 226 549 122 m 303 963 q 206 775 206 963 q 303 588 206 588 q 400 761 400 588 q 386 893 400 838 q 356 943 379 924 q 303 963 332 963 m 803 414 q 707 226 707 414 q 803 39 707 39 q 900 214 900 39 q 896 283 900 243 q 885 349 892 322 q 856 394 879 375 q 803 414 832 414 z "},"&":{"ha":983,"x_min":49,"x_max":968,"o":"m 278 551 l 257 576 q 207 671 226 617 q 188 779 188 725 q 261 953 188 889 q 463 1017 335 1017 q 626 963 563 1017 q 690 821 690 908 q 500 571 690 682 q 556 493 531 526 q 603 432 571 474 l 721 292 q 813 428 783 365 q 860 588 843 492 l 874 588 q 892 553 885 564 q 910 525 899 542 l 950 481 l 915 414 q 776 224 861 321 q 817 174 797 196 q 851 133 819 171 q 968 22 894 88 l 967 0 q 893 1 924 0 q 832 4 863 3 q 758 2 803 4 q 699 0 713 0 l 665 50 l 628 93 q 489 13 556 38 q 344 -12 422 -12 q 135 68 221 -12 q 49 267 49 149 q 101 428 49 364 q 278 551 153 493 m 385 404 l 325 482 q 235 322 235 431 q 291 162 235 231 q 424 93 347 93 q 571 164 499 93 l 507 244 l 444 326 l 385 404 m 425 678 l 449 643 q 553 818 553 717 q 529 897 553 867 q 467 928 506 928 q 400 899 426 928 q 374 822 374 869 q 388 750 374 790 q 425 678 403 710 z "},"'":{"ha":382,"x_min":21,"x_max":338,"o":"m 21 532 l 135 892 q 181 994 161 972 q 251 1017 201 1017 q 313 989 288 1017 q 338 921 338 961 q 308 842 338 888 l 82 500 q 21 532 57 522 z "},"(":{"ha":438,"x_min":54,"x_max":428,"o":"m 369 1271 l 428 1222 q 376 1117 392 1154 q 339 1024 360 1081 q 286 795 306 919 q 267 553 267 671 q 286 311 267 436 q 339 82 306 186 q 376 -13 358 26 q 428 -115 393 -53 l 413 -128 l 369 -165 q 286 -67 313 -99 q 225 19 253 -24 q 99 288 143 150 q 54 553 54 426 q 225 1086 54 815 q 283 1169 254 1132 q 369 1271 313 1207 z "},")":{"ha":436,"x_min":11,"x_max":382,"o":"m 11 -114 q 96 88 69 6 q 167 554 167 303 q 96 1021 167 804 q 64 1108 81 1068 q 11 1222 47 1147 q 42 1243 39 1240 q 67 1271 53 1251 q 208 1085 161 1158 q 382 554 382 813 q 208 24 382 296 q 67 -162 161 -50 q 43 -137 54 -146 q 11 -114 32 -128 z "},"*":{"ha":569,"x_min":47,"x_max":524,"o":"m 47 690 l 100 711 q 151 732 131 722 q 210 758 185 747 l 100 808 l 47 831 q 66 853 57 842 q 82 876 75 865 q 94 901 85 881 q 108 932 104 921 l 151 900 q 194 867 167 888 q 249 828 218 850 l 233 946 l 224 1004 l 289 1001 l 349 1004 q 343 975 346 990 q 338 944 340 960 l 322 829 q 394 877 369 860 q 463 929 418 894 l 489 876 l 522 825 l 474 807 l 358 761 q 468 710 426 726 l 524 692 l 493 646 q 463 588 479 624 l 419 626 l 321 703 q 326 632 321 667 q 333 578 331 597 l 342 514 l 276 518 l 224 515 l 235 578 l 253 710 q 184 661 194 669 q 150 629 174 653 l 107 586 q 94 615 100 601 q 78 644 89 628 q 67 663 72 654 q 47 690 61 672 z "},"+":{"ha":803,"x_min":25,"x_max":776,"o":"m 25 294 q 35 378 35 340 q 33 417 35 403 q 25 461 32 431 l 317 461 l 315 754 q 363 747 349 749 q 403 746 378 746 l 421 746 q 458 749 442 746 q 483 753 474 751 l 483 461 l 776 461 q 772 397 772 417 l 772 378 q 772 344 772 358 q 776 293 772 329 l 483 294 l 483 0 q 439 4 465 3 q 400 6 413 6 q 365 6 381 6 q 315 0 350 6 l 317 294 l 25 294 z "},",":{"ha":347,"x_min":-12,"x_max":307,"o":"m -12 -260 l 104 100 q 114 135 108 117 q 132 181 119 153 q 214 224 151 224 q 281 197 254 224 q 307 128 307 171 q 272 47 307 97 l 50 -289 q 20 -274 36 -281 q -12 -260 4 -267 z "},"-":{"ha":567,"x_min":31,"x_max":535,"o":"m 31 489 q 169 478 121 481 q 281 475 218 475 q 395 478 344 475 q 535 489 446 481 q 525 389 525 435 q 526 343 525 360 q 535 286 528 326 q 394 297 443 294 q 279 300 344 300 q 161 294 249 300 q 31 289 74 289 q 38 344 36 326 q 39 388 39 361 q 31 489 39 432 z "},".":{"ha":311,"x_min":43,"x_max":267,"o":"m 43 96 q 75 176 43 144 q 154 208 107 208 q 235 176 203 208 q 267 96 267 144 q 234 17 267 50 q 154 -15 201 -15 q 76 17 108 -15 q 43 96 43 50 z "},"/":{"ha":506,"x_min":1,"x_max":504,"o":"m 1 -12 l 414 1014 q 460 1008 436 1008 q 478 1009 469 1008 q 504 1014 486 1010 l 93 -12 q 49 -6 67 -6 q 1 -12 29 -6 z "},":":{"ha":328,"x_min":58,"x_max":283,"o":"m 58 96 q 90 176 58 144 q 169 208 122 208 q 250 176 217 208 q 283 96 283 144 q 251 17 283 50 q 169 -15 218 -15 q 91 17 124 -15 q 58 96 58 50 m 60 617 q 92 696 60 664 q 171 728 124 728 q 251 696 219 728 q 283 617 283 664 q 251 538 283 571 q 171 506 218 506 q 92 538 125 506 q 60 617 60 571 z "},";":{"ha":382,"x_min":-1,"x_max":338,"o":"m -1 -260 l 114 100 l 142 181 q 222 224 161 224 q 290 197 264 224 q 315 126 315 169 q 282 47 315 96 l 60 -289 q 33 -274 46 -281 q -1 -260 19 -268 m 114 617 q 146 696 114 664 q 224 728 178 728 q 304 696 271 728 q 338 617 338 664 q 303 538 338 571 q 224 506 269 506 q 146 538 178 506 q 114 617 114 569 z "},"<":{"ha":419,"x_min":31,"x_max":388,"o":"m 31 376 q 99 468 71 429 q 153 544 128 507 q 203 627 186 599 q 256 722 221 656 l 318 683 q 388 647 344 667 q 319 565 342 593 q 265 494 297 536 q 228 443 233 451 q 183 375 217 426 q 229 300 206 338 q 257 261 243 281 q 326 169 293 211 q 386 100 349 142 l 317 69 l 247 33 q 143 221 188 151 q 96 290 121 256 q 31 376 71 325 z "},"=":{"ha":803,"x_min":11,"x_max":793,"o":"m 11 344 q 200 342 126 344 q 376 336 274 339 q 551 341 411 336 q 792 346 690 346 q 788 315 789 329 q 786 272 786 300 q 786 240 786 254 q 792 196 786 226 q 613 198 682 196 q 449 204 543 200 l 378 204 q 198 197 325 204 q 11 190 71 190 q 13 226 13 204 q 15 264 14 247 l 15 283 q 11 344 15 303 m 11 572 q 206 569 129 572 q 392 564 283 567 q 558 569 422 564 q 793 574 694 574 q 786 524 789 549 q 786 496 786 506 q 789 458 786 476 q 793 424 792 440 q 599 428 701 424 q 450 432 496 432 l 375 431 q 213 425 321 431 q 11 419 104 419 l 15 493 l 11 572 z "},">":{"ha":421,"x_min":31,"x_max":390,"o":"m 31 103 q 102 184 71 146 q 161 257 133 222 q 243 378 199 310 q 153 506 192 454 q 101 569 121 547 q 35 646 63 614 l 99 682 l 165 722 q 222 621 210 642 q 274 539 243 586 q 390 376 318 472 q 274 211 319 281 q 213 111 250 175 q 167 33 189 72 l 108 64 q 74 82 85 76 q 31 103 51 93 z "},"?":{"ha":550,"x_min":18,"x_max":514,"o":"m 146 94 q 178 175 146 142 q 257 208 210 208 q 337 176 304 208 q 369 94 369 143 q 338 17 369 49 q 257 -15 306 -15 q 178 17 211 -15 q 146 94 146 50 m 18 953 q 147 1004 89 989 q 272 1019 206 1019 q 444 960 375 1019 q 514 810 514 900 q 497 734 514 763 q 397 614 481 706 l 363 575 q 299 490 315 519 q 282 431 282 461 q 340 375 282 375 q 424 406 383 375 l 438 401 q 425 360 429 379 q 418 315 421 342 q 347 281 381 290 q 267 271 314 271 q 131 313 183 271 q 79 424 79 356 q 97 498 79 467 q 185 614 114 529 l 226 665 q 297 760 281 731 q 314 825 314 790 q 288 887 314 861 q 226 913 263 913 q 61 811 135 913 l 47 815 l 38 881 q 18 953 32 910 z "},"@":{"ha":1183,"x_min":79,"x_max":1024,"o":"m 638 317 q 610 269 626 290 q 494 210 558 210 q 428 225 465 210 q 315 474 315 274 l 321 522 q 372 672 333 604 q 463 778 410 740 q 572 815 515 815 q 649 793 615 815 q 697 732 682 771 l 708 803 l 779 803 l 729 511 l 711 396 q 707 347 707 367 q 713 310 707 322 q 732 281 718 290 q 767 271 746 271 q 785 274 774 271 q 818 292 803 281 q 859 332 833 303 q 906 409 885 361 q 936 508 928 457 q 944 592 944 558 q 846 844 944 746 q 596 943 747 943 q 561 941 581 943 q 531 938 542 939 q 276 792 376 915 q 175 494 175 669 q 176 472 175 485 q 178 443 176 460 q 188 371 178 406 q 217 294 197 336 q 367 114 271 178 q 581 50 464 50 q 738 81 661 50 q 888 178 815 113 q 926 217 908 196 q 961 260 939 231 l 982 190 l 949 150 q 572 -21 788 -21 q 240 105 376 -21 q 82 432 103 231 q 80 468 81 449 q 79 499 79 488 q 144 764 79 649 q 335 953 210 879 q 525 1017 428 1004 q 593 1021 561 1021 q 901 900 779 1021 q 1024 597 1024 779 q 1022 550 1024 567 q 1014 500 1021 533 q 942 320 993 393 q 821 218 890 247 q 754 204 788 204 q 675 231 707 204 q 638 297 643 257 l 638 317 m 403 406 q 425 311 403 343 q 488 274 447 279 q 497 272 493 272 q 503 272 501 272 q 568 304 540 272 q 626 418 596 336 q 640 468 631 432 q 650 515 649 504 l 656 540 l 663 588 q 665 617 664 599 q 667 650 665 636 l 667 667 q 638 728 663 704 q 578 751 613 751 q 540 743 560 751 q 478 696 503 729 q 429 592 453 663 q 413 527 419 564 q 404 465 406 490 q 403 406 403 440 z "},"A":{"ha":901,"x_min":-31,"x_max":931,"o":"m -31 0 l 24 107 q 196 497 88 239 q 304 764 228 574 q 381 956 369 924 l 397 1000 q 486 994 453 994 l 507 994 q 574 1000 533 994 l 589 947 q 667 700 631 808 q 736 497 685 646 q 875 126 825 244 l 931 0 l 807 4 l 682 0 l 644 131 q 610 243 640 149 q 582 331 593 299 l 424 332 l 235 329 q 197 239 208 265 q 153 125 168 167 l 110 0 l 39 4 l -31 0 m 426 794 l 275 433 l 415 431 l 551 432 l 426 794 z "},"B":{"ha":779,"x_min":72,"x_max":746,"o":"m 72 0 l 81 150 q 85 335 81 208 q 90 511 90 461 l 88 697 q 80 840 88 746 q 72 1000 72 933 l 164 996 l 267 1000 l 374 1003 q 711 764 711 1003 q 504 533 711 579 q 746 286 746 507 q 647 79 746 163 q 403 -4 549 -4 l 382 -3 l 279 1 l 193 4 l 72 0 m 283 475 l 283 96 l 344 90 q 542 290 542 90 q 521 394 542 350 q 464 458 500 439 q 413 472 443 467 q 346 478 383 478 l 283 475 m 283 906 l 283 567 l 318 564 q 464 611 413 564 q 515 746 515 658 q 342 911 515 911 l 283 906 z "},"C":{"ha":919,"x_min":44,"x_max":903,"o":"m 903 928 q 892 881 897 906 q 883 839 886 857 q 878 800 881 821 q 875 764 875 779 l 860 760 q 575 922 754 922 q 340 808 424 922 q 257 489 257 694 q 347 188 257 299 q 594 78 438 78 q 742 110 679 78 q 882 225 806 142 l 894 219 q 888 183 889 194 q 881 135 886 172 q 875 85 875 97 q 875 60 875 74 l 825 35 q 576 -14 717 -14 q 190 126 336 -14 q 44 500 44 267 q 191 873 44 733 q 581 1013 338 1013 q 771 985 676 1013 q 832 963 806 974 q 903 928 858 951 z "},"D":{"ha":1022,"x_min":72,"x_max":978,"o":"m 72 0 l 79 147 q 83 331 79 204 q 88 521 88 457 l 86 697 l 72 999 q 192 993 154 993 l 340 999 l 464 1003 q 839 872 700 1003 q 978 518 978 742 q 956 366 978 440 q 892 226 933 292 q 431 -3 743 -3 l 318 0 l 189 4 l 72 0 m 382 907 l 283 903 l 282 699 l 282 494 l 282 294 l 283 93 l 388 89 q 512 101 463 89 q 607 144 561 114 q 724 288 682 193 q 765 504 765 382 q 672 809 765 711 q 382 907 578 907 z "},"E":{"ha":660,"x_min":75,"x_max":619,"o":"m 75 0 l 85 154 q 88 344 85 222 q 92 493 92 465 l 89 697 q 86 799 89 756 q 76 1000 76 951 l 142 997 l 349 993 q 478 997 389 993 q 618 1000 567 1000 l 617 951 l 619 886 q 489 890 558 886 q 386 894 419 894 l 286 893 l 285 736 l 286 569 l 354 568 q 493 569 469 568 q 600 581 557 576 l 596 521 l 599 465 q 471 469 542 465 q 357 474 400 474 l 310 474 l 285 474 l 283 281 l 283 192 l 285 106 l 326 106 q 426 108 383 106 q 619 118 578 118 l 617 57 l 618 0 q 462 1 522 0 q 344 4 401 3 l 204 4 l 75 0 z "},"F":{"ha":619,"x_min":74,"x_max":614,"o":"m 74 0 l 81 153 q 82 282 81 238 q 89 506 89 503 l 88 699 l 74 1000 l 136 997 l 340 993 q 472 997 382 993 q 614 1000 563 1000 l 611 942 l 614 888 q 472 890 531 888 q 335 894 413 892 l 317 894 l 283 894 l 282 735 l 283 569 l 333 569 q 426 572 379 569 q 603 579 544 579 q 599 551 600 567 q 599 525 599 535 q 599 504 599 515 q 604 467 599 493 l 481 474 l 329 475 l 283 475 l 283 375 l 283 304 q 289 158 283 264 q 294 0 294 53 l 179 4 l 74 0 z "},"G":{"ha":1015,"x_min":44,"x_max":950,"o":"m 949 924 l 925 851 l 907 775 l 892 771 l 864 810 q 746 894 817 864 q 597 925 675 925 q 342 806 435 925 q 249 476 249 686 q 337 177 249 285 q 581 69 425 69 q 743 99 660 69 l 746 240 q 743 356 746 278 q 740 458 740 433 l 839 456 q 901 458 864 456 q 950 460 939 460 q 946 349 950 410 q 942 256 942 288 q 943 188 942 210 q 950 50 950 76 q 765 1 849 15 q 579 -12 681 -12 q 189 119 333 -12 q 44 478 44 251 q 197 866 44 718 q 596 1014 349 1014 q 949 924 785 1014 z "},"H":{"ha":988,"x_min":74,"x_max":914,"o":"m 74 0 l 81 154 q 84 336 81 219 q 88 479 88 453 l 86 699 l 74 999 q 128 997 101 999 q 188 993 156 994 q 236 996 203 993 q 299 999 269 999 q 294 868 299 926 q 283 697 283 713 l 283 632 l 283 582 l 494 579 l 704 582 l 704 632 l 704 697 q 697 839 704 732 q 689 999 689 946 q 750 996 717 999 q 800 993 783 993 q 858 996 818 993 q 914 999 897 999 l 907 854 q 904 639 907 792 q 901 476 901 486 l 903 301 q 908 161 903 268 q 914 0 914 54 q 852 1 878 0 q 801 4 826 3 q 739 3 765 4 q 689 0 713 1 l 700 151 q 703 279 700 188 q 706 378 706 371 l 704 468 l 500 471 l 283 468 l 282 382 l 283 303 q 293 132 283 268 q 299 0 299 54 q 237 1 263 0 q 186 4 211 3 q 124 3 150 4 q 74 0 97 1 z "},"I":{"ha":369,"x_min":71,"x_max":297,"o":"m 71 999 q 124 997 97 999 q 183 993 151 994 q 242 996 203 993 q 297 999 282 999 l 289 853 q 286 714 289 790 q 279 475 279 524 l 282 301 q 289 154 282 258 q 296 0 296 50 l 186 4 l 71 0 l 79 151 q 84 324 79 206 q 89 489 89 443 l 86 697 l 71 999 z "},"J":{"ha":367,"x_min":-75,"x_max":294,"o":"m -75 -137 l -51 -140 q 29 -115 -6 -140 q 74 -32 61 -87 q 86 151 86 24 l 86 418 l 86 664 l 86 693 q 83 789 86 746 q 74 1000 74 942 q 134 994 111 996 q 189 993 157 993 q 242 996 206 993 q 294 999 278 999 q 290 833 294 896 q 282 697 286 769 l 282 501 l 282 346 l 285 204 l 289 128 q 250 -58 289 13 q 122 -178 211 -129 q 42 -211 79 -200 q -44 -226 6 -222 q -57 -183 -50 -206 q -75 -137 -64 -161 z "},"K":{"ha":821,"x_min":74,"x_max":878,"o":"m 74 0 l 82 154 q 86 313 82 204 q 90 478 90 421 l 88 699 q 81 846 88 742 q 74 1000 74 950 q 127 998 100 1000 q 188 994 154 996 q 238 997 204 994 q 297 1000 271 1000 l 289 849 q 286 723 289 814 q 283 625 283 632 l 283 551 q 443 725 382 654 q 564 878 504 796 q 614 947 597 924 q 650 1000 638 981 l 739 996 l 825 1000 l 710 886 q 579 746 633 807 q 426 568 517 675 q 576 367 514 449 q 704 207 639 286 q 782 113 746 156 q 878 0 806 85 q 801 1 832 0 q 739 4 769 3 q 659 2 707 4 q 596 0 611 0 q 554 66 579 26 q 517 125 529 106 q 283 433 429 258 l 283 368 l 283 303 q 290 154 283 258 q 297 0 297 50 q 235 1 260 0 q 185 4 210 3 q 122 2 160 4 q 74 0 85 0 z "},"L":{"ha":604,"x_min":74,"x_max":610,"o":"m 74 0 l 79 150 q 83 331 79 207 q 88 519 88 454 l 86 697 q 83 797 86 754 q 74 1000 74 949 q 122 996 101 997 q 185 994 142 994 l 211 994 q 247 994 229 994 q 297 1000 278 999 l 289 838 q 285 663 289 771 q 281 550 281 554 l 285 199 l 289 104 l 340 103 l 440 106 q 515 108 485 106 q 610 119 569 115 l 607 61 l 610 0 l 342 6 l 203 4 l 74 0 z "},"M":{"ha":1235,"x_min":15,"x_max":1217,"o":"m 15 0 q 57 209 40 119 q 85 358 74 299 q 132 701 113 525 q 146 820 140 763 q 163 1001 151 878 q 192 999 175 1000 q 224 997 210 997 l 239 997 q 290 1001 254 997 q 349 867 319 932 q 424 701 389 776 q 504 538 460 625 q 599 354 525 496 l 629 297 l 661 357 q 772 582 703 439 q 831 703 825 689 q 891 835 858 761 q 961 1000 924 910 l 1022 997 l 1089 1000 q 1097 840 1089 911 q 1113 704 1104 769 l 1158 354 q 1217 0 1179 204 q 1140 2 1179 0 q 1100 4 1101 4 q 1035 3 1063 4 q 983 0 1008 1 q 976 197 983 113 q 960 358 965 299 q 922 653 946 489 q 838 494 867 551 q 772 360 808 438 q 697 196 735 282 q 611 0 658 110 l 576 1 l 540 0 q 451 201 482 133 q 375 358 419 268 q 310 491 350 411 q 226 654 269 571 q 208 525 217 590 q 188 357 207 510 q 169 190 178 276 q 160 0 160 104 l 89 4 l 15 0 z "},"N":{"ha":983,"x_min":71,"x_max":906,"o":"m 71 1000 l 136 996 l 206 1000 q 311 865 258 932 q 444 700 379 781 l 665 442 l 793 294 l 793 346 l 793 443 l 794 553 l 793 701 l 785 1000 l 846 997 l 906 1000 l 900 846 q 897 663 900 793 q 894 514 894 532 l 896 357 q 899 174 896 288 q 903 0 903 60 l 838 3 l 772 0 l 482 358 l 238 643 l 186 701 l 186 574 l 185 411 l 185 396 l 185 356 l 192 0 l 132 3 l 75 0 l 81 169 q 83 365 81 226 q 86 513 86 504 l 85 700 l 71 1000 z "},"O":{"ha":1150,"x_min":44,"x_max":1106,"o":"m 44 489 q 190 869 44 725 q 574 1014 336 1014 q 958 872 810 1014 q 1106 501 1106 729 q 957 131 1106 274 q 568 -12 808 -12 q 190 126 336 -12 q 44 489 44 265 m 569 928 q 335 817 415 928 q 254 496 254 707 q 338 179 254 290 q 574 68 421 68 q 810 176 726 68 q 893 485 893 285 q 861 727 893 636 q 757 869 829 818 q 569 928 672 928 z "},"P":{"ha":739,"x_min":71,"x_max":728,"o":"m 71 0 l 79 154 q 84 335 79 217 q 89 489 89 454 l 86 697 l 72 999 l 174 994 l 314 1000 l 415 1004 q 644 931 561 1004 q 728 728 728 857 q 624 503 728 583 q 332 422 519 422 l 281 424 l 281 369 l 281 303 q 288 154 281 258 q 294 0 294 50 l 186 4 l 71 0 m 281 908 l 281 521 l 319 519 q 467 572 417 519 q 518 724 518 624 q 474 867 518 825 q 328 910 431 910 l 281 908 z "},"Q":{"ha":1144,"x_min":44,"x_max":1108,"o":"m 760 18 q 875 -62 833 -36 q 978 -124 924 -94 q 1108 -187 1021 -147 l 1107 -204 l 1042 -243 l 964 -290 l 756 -142 l 590 -14 l 582 -14 q 192 125 339 -14 q 44 496 44 264 q 190 872 44 729 q 571 1014 335 1014 q 957 872 808 1014 q 1106 501 1106 731 q 1035 231 1106 350 q 839 49 965 111 q 811 36 832 44 q 760 18 790 28 m 569 928 q 335 817 415 928 q 254 496 254 707 q 338 179 254 290 q 574 68 421 68 q 810 176 726 68 q 893 485 893 285 q 861 727 893 636 q 757 869 829 818 q 569 928 672 928 z "},"R":{"ha":797,"x_min":74,"x_max":853,"o":"m 74 0 l 81 153 q 85 322 81 206 q 89 500 89 439 l 88 697 l 75 1000 l 174 994 l 303 1000 l 407 1004 q 643 933 556 1004 q 731 743 731 863 q 692 609 731 672 q 590 515 654 546 q 482 485 549 496 l 507 447 q 628 278 550 381 q 753 118 696 188 q 853 0 801 60 l 718 4 l 581 0 q 514 118 528 93 q 419 267 471 190 q 360 350 383 318 q 283 447 328 393 l 283 358 l 283 303 q 289 158 283 265 q 294 0 294 51 l 183 4 l 74 0 m 283 901 l 283 536 l 333 532 q 525 725 525 532 q 351 907 525 907 q 283 901 321 907 z "},"S":{"ha":700,"x_min":29,"x_max":651,"o":"m 29 60 l 56 142 q 65 181 60 161 q 74 228 69 200 l 89 235 q 297 81 160 81 q 419 126 371 81 q 468 240 468 172 q 358 392 468 339 l 235 451 q 51 719 51 538 q 146 932 51 850 q 393 1014 240 1014 q 636 939 529 1014 q 617 901 625 918 q 606 874 610 883 q 590 829 601 864 q 578 794 582 808 l 563 794 q 381 921 499 921 q 272 881 314 921 q 231 778 231 840 q 335 642 231 693 l 449 585 q 606 469 560 529 q 651 317 651 410 q 550 81 651 174 q 290 -12 449 -12 q 29 60 157 -12 z "},"T":{"ha":749,"x_min":-15,"x_max":764,"o":"m -15 860 l -12 956 l -12 1000 q 172 998 79 1000 q 374 994 264 996 q 573 997 439 994 q 763 1000 707 1000 l 760 938 l 764 860 q 664 874 714 867 q 611 875 650 875 q 542 878 589 875 q 475 881 494 881 q 473 730 475 807 q 469 567 471 653 l 474 301 l 485 0 l 369 4 l 264 0 l 271 151 q 275 361 271 219 q 279 568 279 503 l 276 878 l 263 878 q 189 876 231 878 q 125 875 147 875 q 47 868 67 869 q -15 860 28 867 z "},"U":{"ha":994,"x_min":71,"x_max":929,"o":"m 71 1001 q 131 997 96 999 q 183 996 165 996 q 244 998 207 996 q 293 1000 282 1000 q 285 815 293 910 q 278 699 278 721 l 278 626 l 278 451 q 278 355 278 403 q 289 267 279 307 q 375 143 306 190 q 539 96 444 96 q 703 143 636 96 q 797 278 771 190 q 819 485 819 350 l 819 629 l 819 678 l 819 699 q 815 826 819 724 q 810 1000 810 928 l 867 997 l 882 997 q 929 1001 897 997 q 926 871 929 924 q 918 699 918 713 l 918 656 l 918 633 l 918 525 l 918 383 q 799 100 918 214 q 499 -14 679 -14 q 203 89 328 -14 q 79 333 79 192 l 81 521 l 81 626 l 81 699 q 76 819 81 714 q 71 1001 71 924 z "},"V":{"ha":856,"x_min":-39,"x_max":894,"o":"m -39 1000 l 86 996 l 214 1000 q 262 836 242 901 q 307 701 282 771 q 478 264 365 526 q 576 503 549 432 q 651 706 610 589 q 744 1001 692 822 q 781 999 760 1000 q 821 997 803 997 l 894 1000 q 819 838 856 917 q 758 701 782 758 q 618 357 688 533 q 544 156 585 269 q 489 0 511 63 l 422 3 l 356 0 q 301 155 343 36 q 228 357 260 274 q 178 492 201 431 q 95 696 147 571 q -39 1000 43 821 z "},"W":{"ha":1381,"x_min":-19,"x_max":1400,"o":"m -19 1000 q 46 997 10 1000 q 100 994 82 994 l 117 994 q 228 1001 164 994 q 257 871 239 950 q 297 701 281 768 q 351 504 326 592 q 425 263 382 399 q 571 701 515 521 q 621 869 593 771 q 658 1001 639 935 q 705 999 674 1000 q 738 997 736 997 l 814 1000 l 893 701 q 954 504 929 579 q 1036 265 986 407 q 1115 504 1081 394 q 1174 701 1142 588 q 1211 835 1197 783 q 1253 1000 1225 886 l 1326 996 l 1400 1000 l 1290 700 q 1171 356 1229 535 q 1108 159 1138 254 q 1061 0 1079 64 l 981 4 l 906 0 q 863 156 883 78 q 801 357 824 283 q 682 719 751 518 q 601 481 642 600 q 561 357 578 411 q 499 156 539 288 q 451 0 469 63 l 374 4 l 297 0 q 244 197 260 142 q 197 357 228 253 q 89 701 144 533 q 54 800 71 753 q -19 1000 19 897 z "},"X":{"ha":842,"x_min":-12,"x_max":854,"o":"m -12 0 q 135 190 90 132 q 246 349 188 261 q 285 403 268 379 q 335 479 301 428 q 207 703 258 618 q 123 840 156 789 q 18 1000 90 892 q 79 998 49 1000 q 146 994 110 996 q 215 997 168 994 q 279 1000 263 1000 q 315 922 297 961 q 349 858 326 900 q 403 756 376 804 q 468 640 429 708 q 544 754 525 724 q 604 853 564 785 q 649 935 622 885 q 682 1000 669 974 l 771 996 l 849 999 q 751 870 799 933 q 628 701 703 807 l 521 542 q 579 437 550 488 q 626 356 608 386 q 725 194 678 268 q 854 0 772 121 l 719 4 l 586 0 l 499 174 q 452 263 476 218 q 388 381 428 307 q 293 233 329 292 q 246 154 263 183 l 160 1 l 81 4 q 43 4 60 4 q -12 0 26 4 z "},"Y":{"ha":772,"x_min":-54,"x_max":826,"o":"m -54 1000 q 15 996 -25 997 q 76 994 56 994 l 107 994 q 161 994 133 994 q 206 1000 189 999 q 285 832 257 889 q 353 700 318 765 q 394 625 372 664 q 442 542 415 586 q 525 697 490 629 q 589 831 560 765 q 663 1000 606 867 l 742 996 l 826 1000 q 707 804 763 897 q 647 701 667 736 q 563 549 626 667 q 496 428 522 476 l 496 353 l 496 301 q 506 132 496 268 q 511 0 511 54 q 448 1 474 0 q 397 4 422 3 q 335 3 361 4 q 283 0 308 1 q 292 88 289 56 q 294 151 294 121 l 299 350 l 299 397 q 226 532 263 464 q 126 708 179 618 q 47 840 92 768 q -54 1000 11 897 z "},"Z":{"ha":856,"x_min":-21,"x_max":869,"o":"m -21 0 l 215 349 q 319 510 281 449 q 419 674 333 531 q 550 890 478 769 q 453 889 506 890 q 374 888 400 888 q 199 881 294 888 q 60 868 181 879 l 64 944 l 61 1000 q 253 998 158 1000 q 461 994 349 996 q 674 997 532 994 q 869 1000 817 1000 l 665 700 q 497 439 576 565 q 300 115 413 303 l 364 115 l 489 117 q 688 127 592 117 q 847 143 785 138 l 844 78 l 849 0 l 421 4 q 178 3 281 4 q -21 0 76 1 z "},"[":{"ha":381,"x_min":75,"x_max":363,"o":"m 75 -168 q 78 133 75 11 q 86 532 86 501 q 81 794 86 581 q 76 1161 76 1007 l 363 1161 l 360 1038 l 269 1038 q 265 703 269 879 q 260 475 260 526 q 263 210 260 376 q 267 -47 267 43 l 360 -47 l 360 -167 l 75 -168 z "},"\\":{"ha":465,"x_min":53,"x_max":378,"o":"m 53 1000 l 203 1000 l 378 0 l 228 0 l 53 1000 z "},"]":{"ha":381,"x_min":18,"x_max":304,"o":"m 18 -167 l 19 -43 l 111 -43 q 113 245 111 132 q 119 518 115 358 q 116 783 119 617 q 113 1039 113 950 l 19 1040 l 19 1161 l 304 1161 q 299 748 304 967 q 294 461 294 529 q 296 250 294 318 q 303 -167 303 -87 l 18 -167 z "},"^":{"ha":465,"x_min":1,"x_max":468,"o":"m 1 858 q 60 895 43 883 q 110 931 78 907 q 206 1018 151 964 l 329 1017 q 354 974 342 994 q 378 940 357 968 q 468 846 414 894 q 410 835 435 842 q 353 815 385 828 q 338 850 343 839 q 313 893 328 872 q 292 919 306 904 q 261 953 278 935 q 218 919 236 935 q 185 890 200 904 q 111 814 149 857 q 88 827 93 825 q 60 838 83 829 q 38 848 44 846 q 1 858 32 850 z "},"_":{"ha":654,"x_min":53,"x_max":553,"o":"m 53 -50 l 53 0 l 553 0 l 553 -50 l 53 -50 z "},"`":{"ha":457,"x_min":0,"x_max":354,"o":"m 0 1019 q 63 1017 22 1017 q 96 1015 79 1015 l 121 1015 q 200 1019 146 1015 l 271 924 l 354 817 l 299 819 l 261 818 q 209 874 228 856 q 160 918 190 893 q 90 969 119 950 q 0 1019 61 988 z "},"a":{"ha":731,"x_min":44,"x_max":740,"o":"m 150 564 l 138 564 q 126 617 131 601 q 108 663 121 633 q 243 746 179 721 q 386 771 307 771 q 572 717 507 771 q 638 561 638 663 l 636 447 l 636 206 q 643 129 636 147 q 701 82 651 82 q 738 93 715 82 l 738 75 l 740 31 q 604 -12 672 -12 q 522 8 553 -12 q 469 78 492 29 q 458 65 468 76 q 440 47 447 53 q 265 -14 368 -14 q 105 45 165 -14 q 44 203 44 104 q 94 349 44 292 q 169 403 125 382 q 311 449 214 424 l 363 463 q 451 544 451 486 q 417 635 451 599 q 328 671 382 671 q 150 564 228 671 m 451 240 l 451 422 q 357 385 407 400 q 285 356 307 371 q 251 313 263 340 q 235 235 235 276 q 335 96 235 96 q 399 115 368 96 q 440 163 429 135 q 451 240 451 190 z "},"b":{"ha":857,"x_min":75,"x_max":811,"o":"m 75 -1 l 85 185 q 88 408 85 264 q 92 581 92 551 l 90 789 q 83 935 90 822 q 75 1107 75 1049 q 142 1103 107 1107 q 185 1100 176 1100 q 237 1103 211 1100 q 286 1107 263 1106 l 278 947 l 274 729 l 274 647 q 381 743 329 715 q 501 771 432 771 q 724 665 638 771 q 811 390 811 558 q 716 99 811 211 q 469 -12 621 -12 q 292 35 372 -12 q 257 57 272 44 q 217 96 242 69 l 153 -1 l 113 1 l 75 -1 m 443 665 q 319 590 364 665 q 274 376 274 514 l 274 356 q 436 79 274 79 q 563 153 518 79 q 607 365 607 226 q 565 588 607 511 q 443 665 522 665 z "},"c":{"ha":707,"x_min":47,"x_max":708,"o":"m 708 679 l 668 592 l 638 508 l 624 507 q 565 640 611 593 q 447 688 519 688 q 304 606 360 688 q 249 393 249 525 q 317 171 249 256 q 494 86 385 86 q 671 167 590 86 l 686 156 q 669 101 676 126 q 656 42 661 75 q 558 0 606 13 q 447 -12 511 -12 q 158 97 269 -12 q 47 381 47 207 q 158 662 47 553 q 444 771 268 771 q 588 751 529 771 q 708 679 646 731 z "},"d":{"ha":857,"x_min":47,"x_max":779,"o":"m 582 706 l 582 753 l 582 847 l 571 1108 q 628 1103 593 1106 q 681 1100 664 1100 q 741 1103 719 1100 q 779 1107 763 1106 l 772 967 q 768 797 772 913 q 764 624 764 682 q 767 451 764 572 q 769 321 769 329 q 776 138 769 290 q 779 0 779 76 q 740 3 768 1 q 704 4 713 4 l 681 4 q 624 4 651 4 q 578 0 596 1 q 584 56 582 36 q 586 94 586 76 l 585 110 l 554 64 q 474 8 526 31 q 365 -14 421 -14 q 135 92 222 -14 q 47 368 47 197 q 142 658 47 547 q 388 769 236 769 q 489 755 444 769 q 582 706 533 740 m 425 679 q 297 600 342 679 q 253 374 253 521 q 294 165 253 240 q 411 90 336 90 q 540 170 494 90 q 586 396 586 250 q 544 606 586 532 q 425 679 503 679 z "},"e":{"ha":778,"x_min":47,"x_max":733,"o":"m 728 357 q 588 360 663 357 q 476 363 513 363 q 357 360 438 363 q 249 357 276 357 l 249 344 q 308 156 249 226 q 467 85 368 85 q 600 114 533 85 q 651 142 632 128 q 706 188 671 156 l 718 175 q 705 141 708 150 q 692 97 701 132 l 682 54 q 570 0 624 15 q 439 -15 517 -15 q 151 89 256 -15 q 47 376 47 193 q 146 663 47 554 q 410 771 244 771 q 646 678 558 771 q 733 426 733 585 q 733 399 733 411 q 728 357 732 386 m 407 689 q 290 624 335 689 q 246 449 246 558 l 350 447 l 474 449 l 547 451 l 547 460 q 510 627 547 565 q 407 689 472 689 z "},"f":{"ha":408,"x_min":-4,"x_max":451,"o":"m -4 758 l 107 749 l 107 782 q 133 917 107 846 q 199 1026 160 988 q 295 1090 235 1067 q 418 1114 356 1114 l 451 1113 l 446 1061 l 443 967 l 443 915 l 426 906 q 326 961 374 961 q 264 933 289 961 q 239 864 239 906 q 290 749 239 821 l 318 749 l 351 749 l 443 758 l 442 715 l 444 660 l 367 667 l 292 669 l 290 486 l 292 321 q 299 140 292 297 q 301 0 301 78 q 243 1 267 0 q 196 4 219 3 q 138 2 174 4 q 92 0 103 0 l 99 161 q 103 322 99 211 q 107 483 107 433 l 106 668 l 88 668 q -3 663 47 668 l -1 707 l -4 758 z "},"g":{"ha":744,"x_min":18,"x_max":760,"o":"m 169 42 q 82 151 82 81 q 118 229 82 194 q 218 282 154 264 q 50 513 50 335 q 134 701 50 628 q 353 774 218 774 q 479 761 406 774 l 522 756 l 632 753 l 647 753 q 760 761 685 753 l 757 703 l 758 650 q 636 665 689 665 l 604 664 q 662 592 644 631 q 679 501 679 554 q 590 326 679 397 q 371 256 501 256 l 318 258 q 254 206 254 240 q 381 156 254 156 q 394 158 390 156 l 460 160 l 485 160 q 688 100 617 160 q 758 -71 758 40 q 649 -276 758 -197 q 363 -356 539 -356 q 110 -297 203 -356 q 18 -137 18 -239 q 58 -31 18 -78 q 169 42 97 15 m 332 18 l 253 14 q 160 -129 160 -42 q 213 -235 160 -196 q 357 -274 265 -274 q 528 -233 467 -274 q 590 -119 590 -192 q 561 -41 590 -76 q 484 6 532 -6 q 332 18 436 18 m 363 693 q 269 643 304 693 q 235 506 235 593 q 365 329 235 329 q 456 375 422 329 q 489 503 489 421 q 456 643 489 593 q 363 693 422 693 z "},"h":{"ha":839,"x_min":72,"x_max":767,"o":"m 72 0 l 81 165 q 85 368 81 235 q 90 542 90 501 q 89 667 90 583 q 88 792 88 750 q 81 947 88 838 q 74 1108 74 1057 q 124 1106 99 1108 q 178 1103 149 1104 q 283 1108 218 1103 q 278 924 283 1022 q 274 790 274 825 l 272 667 l 272 649 q 501 772 353 772 q 644 738 581 772 q 735 644 708 703 q 750 585 743 622 q 757 517 757 549 l 756 428 l 756 371 l 756 338 l 756 321 q 761 160 756 267 q 767 0 767 53 q 711 4 736 3 q 663 6 686 6 q 609 3 646 6 q 557 0 572 0 q 563 196 557 96 q 569 321 569 296 l 569 374 l 569 486 q 568 537 569 517 q 561 572 567 557 q 518 632 551 610 q 438 654 485 654 q 317 599 361 654 q 272 447 272 543 l 272 365 l 272 322 q 278 179 272 275 q 283 0 283 83 q 228 4 253 3 q 179 6 203 6 q 131 3 163 6 q 72 0 99 0 z "},"i":{"ha":364,"x_min":71,"x_max":293,"o":"m 75 0 q 82 197 75 89 q 89 360 89 306 l 89 436 q 86 544 89 499 q 76 754 76 706 q 132 749 110 750 q 183 747 154 747 q 286 754 225 747 q 283 604 286 665 q 275 410 275 422 l 275 321 l 283 0 q 204 4 229 4 l 179 4 q 122 2 157 4 q 75 0 86 0 m 71 971 q 103 1050 71 1018 q 182 1082 135 1082 q 260 1049 228 1082 q 293 971 293 1017 q 260 893 293 926 q 181 860 226 860 q 103 892 135 860 q 71 971 71 924 z "},"j":{"ha":371,"x_min":-40,"x_max":304,"o":"m -40 -286 q 56 -242 25 -281 q 88 -162 78 -215 q 97 -8 97 -110 l 97 290 l 97 433 q 92 580 97 465 q 86 753 86 694 q 142 746 125 747 q 189 744 160 744 q 239 746 222 744 q 296 754 256 747 q 292 597 296 671 q 282 403 282 425 l 282 286 l 282 111 l 286 3 l 289 -53 q 281 -147 289 -114 q 247 -219 272 -179 q -3 -353 176 -333 q -40 -286 -18 -318 m 81 975 q 113 1053 81 1021 q 193 1086 146 1086 q 272 1054 240 1086 q 304 975 304 1022 q 272 897 304 928 q 192 865 239 865 q 113 897 146 865 q 81 975 81 928 z "},"k":{"ha":740,"x_min":71,"x_max":785,"o":"m 71 0 l 79 167 q 84 353 79 225 q 89 533 89 482 l 85 793 l 72 1107 q 181 1099 132 1099 q 283 1106 222 1099 l 276 949 q 274 777 276 900 q 271 649 271 654 l 272 451 l 378 558 l 524 710 l 564 754 q 606 752 585 754 q 651 749 626 750 q 690 751 665 749 q 736 754 715 754 l 636 669 q 535 576 585 624 q 414 458 485 529 q 535 285 499 333 q 644 151 581 224 q 706 82 672 117 q 785 0 731 54 q 714 3 753 0 q 654 6 675 6 q 587 3 633 6 q 521 0 540 0 l 444 106 l 358 224 l 272 342 l 272 293 q 274 193 272 225 q 281 0 281 35 q 222 3 254 0 q 174 6 190 6 q 71 0 136 6 z "},"l":{"ha":360,"x_min":72,"x_max":285,"o":"m 72 0 l 81 161 q 85 357 81 221 q 89 563 89 493 q 88 676 89 600 q 86 790 86 753 q 79 931 86 836 q 72 1107 72 1025 q 133 1100 114 1101 q 181 1099 151 1099 q 228 1100 210 1099 q 285 1107 246 1101 l 276 944 q 273 732 276 871 q 269 563 269 593 l 272 321 q 278 179 272 275 q 283 0 283 83 q 204 4 229 4 l 179 4 q 119 2 156 4 q 72 0 83 0 z "},"m":{"ha":1276,"x_min":76,"x_max":1201,"o":"m 76 754 q 146 749 114 750 q 185 747 178 747 q 282 754 225 747 q 276 665 276 704 q 299 692 286 678 q 322 714 311 706 q 497 771 400 771 q 674 701 604 771 l 707 661 q 932 771 789 771 q 1146 668 1075 771 q 1182 591 1174 628 q 1190 474 1190 554 l 1190 461 l 1189 396 l 1189 340 l 1189 333 q 1192 219 1189 268 q 1201 1 1201 49 l 1093 6 q 1036 3 1075 6 q 982 0 997 0 q 996 179 992 108 q 1000 319 1000 250 l 1000 408 l 1000 507 q 983 594 1000 568 q 872 653 950 653 q 772 612 810 653 q 733 503 733 571 l 731 403 l 731 388 l 733 321 q 738 156 733 253 q 743 0 743 58 q 685 3 717 3 q 635 6 653 4 q 592 6 611 6 q 529 0 574 6 q 533 138 529 76 q 544 319 544 300 l 547 390 l 547 396 l 547 493 q 534 593 547 564 q 493 638 521 622 q 429 653 465 653 q 356 633 390 653 q 300 580 321 614 q 279 475 279 546 l 279 386 l 279 378 l 279 319 q 286 175 279 269 q 293 0 293 81 q 232 3 265 0 q 183 6 199 6 q 130 3 167 6 q 78 0 93 0 l 88 160 q 90 283 88 194 q 93 383 93 372 l 93 433 q 82 614 93 458 q 76 754 76 692 z "},"n":{"ha":847,"x_min":75,"x_max":772,"o":"m 75 0 q 79 156 75 86 q 90 363 90 342 l 90 436 q 88 543 90 497 q 78 753 78 703 q 135 749 104 750 q 185 747 165 747 l 208 747 q 240 747 224 747 q 283 753 267 751 q 278 699 281 729 q 275 646 275 668 q 304 683 290 668 q 335 711 318 697 q 508 771 411 771 q 693 701 624 771 q 763 517 763 632 l 761 442 l 761 376 l 761 371 l 761 319 q 767 171 761 264 q 772 0 772 78 l 665 4 l 558 0 q 563 150 558 82 q 574 340 574 332 l 574 406 l 574 488 q 556 592 574 560 q 440 651 524 651 q 321 594 367 651 q 275 443 275 538 l 275 381 l 275 321 q 281 182 275 279 q 286 0 286 85 l 179 4 l 75 0 z "},"o":{"ha":888,"x_min":47,"x_max":840,"o":"m 47 382 q 156 664 47 557 q 443 771 264 771 q 731 664 621 771 q 840 383 840 557 q 731 103 840 210 q 443 -4 621 -4 q 156 102 265 -4 q 47 382 47 208 m 443 685 q 247 376 247 685 q 297 147 247 225 q 444 69 347 69 q 589 148 538 69 q 640 368 640 226 q 443 685 640 685 z "},"p":{"ha":865,"x_min":75,"x_max":818,"o":"m 75 -349 l 82 -187 q 83 -53 82 -100 q 90 188 90 181 l 88 433 q 82 585 88 474 q 76 753 76 697 q 174 747 139 747 q 276 754 217 747 q 269 632 269 692 l 303 681 q 394 747 339 722 q 508 771 450 771 q 732 663 646 771 q 818 381 818 554 q 726 95 818 206 q 488 -15 633 -15 q 335 29 404 -15 q 272 97 306 47 l 272 31 l 272 -37 q 275 -143 272 -99 q 285 -349 285 -300 q 228 -343 243 -344 q 181 -342 213 -342 q 126 -345 160 -342 q 75 -349 93 -349 m 447 661 q 314 585 361 661 q 267 367 267 508 q 443 82 267 82 q 574 159 525 82 q 622 368 622 236 q 577 585 622 510 q 447 661 532 661 z "},"q":{"ha":860,"x_min":47,"x_max":792,"o":"m 600 635 l 600 660 q 594 754 600 703 q 649 747 632 749 q 693 746 667 746 q 792 754 735 746 l 783 590 q 780 381 783 514 q 776 218 776 247 l 779 -36 l 790 -347 q 736 -342 764 -343 q 683 -340 708 -340 q 642 -340 660 -340 q 581 -347 625 -340 l 590 -192 q 593 -56 590 -153 q 596 47 596 40 l 596 115 q 582 94 589 104 q 560 68 571 79 q 477 10 531 32 q 367 -12 424 -12 q 135 93 222 -12 q 47 371 47 199 q 140 659 47 546 q 375 772 232 772 q 458 760 419 772 q 533 722 497 747 q 567 690 553 707 q 600 635 581 672 m 425 674 q 292 597 339 674 q 246 378 246 519 q 291 167 246 243 q 415 92 336 92 q 550 170 501 92 q 599 388 599 249 q 553 599 599 524 q 425 674 507 674 z "},"r":{"ha":500,"x_min":76,"x_max":507,"o":"m 76 0 l 88 161 l 92 375 l 90 433 q 88 540 90 494 q 78 754 78 703 q 178 747 139 747 q 224 749 204 747 q 281 756 243 750 q 275 653 275 700 l 276 613 q 488 763 338 763 l 507 763 l 506 667 l 507 575 l 493 564 q 425 586 456 586 q 357 568 390 586 q 306 522 324 550 q 282 444 289 493 q 275 289 275 394 q 281 145 275 242 q 286 0 286 49 q 206 4 232 4 l 182 4 q 124 3 149 4 q 76 0 99 1 z "},"s":{"ha":600,"x_min":38,"x_max":560,"o":"m 38 40 l 58 115 l 72 193 l 86 200 q 110 158 99 169 q 180 101 138 122 q 272 79 222 79 q 363 107 328 79 q 397 179 397 135 q 289 290 397 250 l 243 308 q 136 360 175 335 q 44 536 44 418 q 119 706 44 639 q 313 772 194 772 q 538 719 418 772 l 513 646 l 492 569 l 479 569 q 317 692 426 692 q 240 663 271 692 q 208 594 208 635 q 232 531 208 556 q 314 485 256 507 l 364 467 q 410 449 389 458 q 451 429 432 440 q 560 243 560 372 q 476 58 560 131 q 261 -14 393 -14 q 38 40 142 -14 z "},"t":{"ha":451,"x_min":-3,"x_max":476,"o":"m -3 650 l -1 719 l -1 757 q 103 747 49 747 q 93 900 103 808 q 147 916 125 908 q 196 933 169 924 q 256 958 242 951 q 300 982 283 974 l 292 858 l 286 746 q 367 747 346 746 q 453 757 415 753 l 449 701 l 451 649 q 388 650 410 649 q 289 656 301 656 l 289 364 q 293 160 289 186 q 378 82 304 82 q 416 88 397 82 q 458 106 435 93 q 465 63 464 69 q 476 31 467 56 q 392 -4 431 6 q 303 -14 354 -14 q 152 35 206 -14 q 99 174 99 85 l 103 371 l 103 654 l 71 653 l -3 650 z "},"u":{"ha":822,"x_min":72,"x_max":747,"o":"m 72 754 q 126 749 106 750 q 175 747 146 747 q 282 754 221 747 q 276 560 282 660 q 269 433 269 460 l 269 381 l 269 256 q 299 140 269 175 q 397 106 328 106 q 550 293 550 106 l 550 388 l 550 436 q 547 539 550 493 q 538 754 538 697 q 593 749 571 750 q 643 747 615 747 q 747 754 686 747 l 739 593 l 735 374 l 735 321 q 738 214 735 260 q 747 0 747 53 q 694 4 717 3 q 647 6 671 6 q 547 0 608 6 q 551 53 550 31 q 553 104 553 76 q 319 -14 457 -14 q 148 51 215 -14 q 81 214 81 115 l 82 329 l 82 396 l 82 436 q 77 565 82 456 q 72 754 72 674 z "},"v":{"ha":665,"x_min":-35,"x_max":700,"o":"m -35 754 q 24 749 -6 750 q 81 747 54 747 l 107 747 q 153 747 129 747 q 192 753 178 751 l 267 532 q 306 425 286 476 q 386 217 336 343 q 503 531 463 408 q 529 606 521 582 q 574 754 529 607 q 607 749 594 750 q 636 747 619 747 q 700 753 660 747 q 649 633 664 671 q 610 533 633 596 l 538 338 l 467 143 l 418 0 q 388 3 408 1 q 361 4 368 4 l 344 4 q 313 4 326 4 q 269 0 300 4 q 136 351 190 217 l 63 532 l -35 754 z "},"w":{"ha":1115,"x_min":-21,"x_max":1136,"o":"m -21 754 q 35 749 13 750 q 86 747 57 747 q 133 749 111 747 q 197 754 154 750 q 228 632 214 685 q 256 533 231 624 q 297 394 281 443 q 353 233 313 346 l 381 307 l 411 403 l 456 531 q 485 628 471 578 q 521 754 508 710 q 562 750 539 751 q 596 749 585 749 l 615 749 q 675 754 638 749 q 709 628 693 685 q 735 533 725 571 q 754 463 740 511 q 774 397 757 453 l 826 243 q 876 369 853 310 q 936 533 908 451 l 1006 753 q 1037 750 1018 751 q 1071 749 1056 749 l 1088 749 q 1136 753 1103 749 l 1044 532 l 982 368 q 924 201 946 267 q 856 0 893 114 l 774 4 l 699 0 l 633 225 q 549 494 601 335 q 497 344 532 447 q 457 221 474 274 l 390 0 l 310 4 l 225 0 l 182 149 l 114 364 q 63 525 78 486 q 28 624 51 560 q -21 754 -1 703 z "},"x":{"ha":686,"x_min":-22,"x_max":710,"o":"m -22 0 q 81 129 39 76 q 164 238 135 199 q 196 279 179 258 q 257 363 225 318 q 174 503 211 443 q 99 617 132 567 q 0 754 58 676 q 64 749 39 750 q 122 747 89 747 q 183 750 142 747 q 243 753 225 753 l 346 571 l 383 511 l 404 540 l 425 569 l 553 753 q 595 750 567 751 q 625 749 624 749 l 642 749 q 696 753 658 749 q 486 494 569 604 l 433 425 l 533 263 q 710 0 607 147 l 589 4 l 465 0 l 413 93 l 336 225 l 313 265 l 251 183 q 181 81 222 146 q 128 0 154 40 l 50 3 l -22 0 z "},"y":{"ha":683,"x_min":-39,"x_max":725,"o":"m -39 756 q 37 752 -3 756 q 85 749 76 749 q 146 751 104 749 q 204 754 188 754 q 275 535 247 617 q 317 421 296 478 l 389 242 q 429 339 408 290 q 461 422 442 368 q 581 756 513 556 q 623 750 604 751 q 654 749 642 749 q 685 751 664 749 q 725 754 706 754 q 640 576 675 650 q 567 413 615 521 q 447 140 499 263 q 363 -76 396 18 q 322 -191 343 -126 q 272 -346 300 -256 q 231 -342 256 -343 q 193 -340 206 -340 q 163 -341 176 -340 q 118 -346 150 -342 q 197 -206 167 -262 q 249 -92 226 -149 l 285 0 q 196 233 232 142 q 115 426 160 325 q 32 610 71 526 q -39 756 -11 697 z "},"z":{"ha":682,"x_min":7,"x_max":674,"o":"m 7 0 q 13 49 13 29 l 8 88 l 171 297 l 304 479 l 424 651 l 303 653 q 183 647 274 653 q 49 642 93 642 l 53 711 l 51 756 q 222 751 131 756 q 360 747 314 747 q 468 749 433 747 q 674 756 639 756 l 669 708 l 672 668 l 519 474 l 376 275 l 263 104 l 310 104 l 369 104 q 492 109 390 104 q 667 114 593 114 q 661 50 661 76 l 665 0 q 443 2 556 0 q 329 4 331 4 q 151 3 225 4 q 7 0 76 1 z "},"{":{"ha":508,"x_min":53,"x_max":418,"o":"m 53 500 q 86 507 68 500 q 143 600 143 532 l 143 1046 q 176 1133 143 1101 q 267 1164 208 1164 l 418 1164 l 418 1074 l 400 1074 q 338 1058 354 1074 q 321 999 321 1043 l 321 621 q 301 554 321 583 q 247 510 282 525 q 210 500 231 503 q 247 490 231 499 q 300 446 279 476 q 321 379 321 415 l 321 1 q 338 -57 321 -40 q 400 -74 354 -74 l 418 -74 l 418 -164 l 267 -164 q 175 -133 207 -164 q 143 -46 143 -103 l 143 400 q 117 472 143 443 q 53 500 92 500 z "},"|":{"ha":276,"x_min":53,"x_max":203,"o":"m 53 0 l 53 1000 l 203 1000 l 203 0 l 53 0 z "},"}":{"ha":508,"x_min":53,"x_max":418,"o":"m 53 -164 l 53 -74 l 69 -74 q 132 -58 115 -74 q 149 1 149 -43 l 149 379 q 224 490 149 458 q 260 500 239 497 q 224 510 239 503 q 169 554 190 524 q 149 621 149 585 l 149 999 q 132 1057 149 1040 q 69 1074 115 1074 l 53 1074 l 53 1164 l 203 1164 q 295 1133 263 1164 q 328 1046 328 1101 l 328 600 q 353 528 328 556 q 418 500 378 500 q 383 493 401 500 q 328 400 328 468 l 328 -46 q 295 -133 328 -101 q 203 -164 263 -164 l 53 -164 z "},"~":{"ha":556,"x_min":13,"x_max":544,"o":"m 13 1107 q 40 1173 26 1149 q 79 1215 54 1197 q 178 1254 128 1254 q 233 1245 206 1254 q 338 1201 260 1236 q 376 1188 358 1192 q 407 1183 393 1183 q 486 1247 458 1183 q 544 1219 510 1225 q 535 1190 539 1203 q 522 1161 532 1176 q 461 1092 503 1122 q 383 1061 419 1061 q 296 1085 351 1061 l 204 1122 q 140 1136 171 1136 q 71 1082 88 1136 q 44 1097 53 1093 q 13 1107 35 1101 z "},"‚":{"ha":347,"x_min":-12,"x_max":307,"o":"m -12 -260 l 104 100 q 114 135 108 117 q 132 181 119 153 q 214 224 151 224 q 281 197 254 224 q 307 128 307 171 q 272 47 307 97 l 50 -289 q 20 -274 36 -281 q -12 -260 4 -267 z "},"ƒ":{"ha":569,"x_min":-100,"x_max":558,"o":"m -100 -351 l -82 -249 l -74 -156 l -56 -146 q 38 -197 -14 -197 q 106 -167 76 -197 q 135 -93 135 -136 q 99 8 135 -53 l 165 664 l 150 664 q 105 663 124 664 q 56 656 86 661 q 63 703 60 681 q 67 754 67 725 q 131 746 103 747 q 175 744 158 744 l 181 775 q 294 1019 203 929 q 522 1108 385 1108 l 558 1107 l 539 1001 l 531 908 l 511 900 q 413 953 454 953 q 347 923 374 953 q 319 850 319 893 q 357 744 319 801 l 389 744 q 515 753 449 744 q 507 705 508 722 q 506 653 506 688 l 426 661 q 404 663 417 661 q 374 664 392 664 l 350 664 l 279 8 l 276 -19 q 234 -159 267 -89 q 161 -267 201 -229 q 56 -328 121 -304 q -74 -351 -10 -351 l -100 -351 z "},"„":{"ha":610,"x_min":-12,"x_max":568,"o":"m -12 -260 l 104 100 q 114 135 108 117 q 132 181 119 153 q 214 224 151 224 q 281 197 254 224 q 307 128 307 171 q 272 47 307 97 l 50 -289 q 20 -274 36 -281 q -12 -260 4 -267 m 249 -260 l 365 100 q 381 148 375 133 q 393 181 386 163 q 475 224 413 224 q 542 197 515 224 q 568 128 568 171 q 535 47 568 99 l 311 -289 q 283 -274 300 -282 q 249 -260 265 -265 z "},"…":{"ha":1383,"x_min":133,"x_max":1274,"o":"m 133 100 q 168 182 133 150 q 250 217 203 217 q 332 183 297 217 q 367 100 367 149 q 332 18 367 51 q 250 -17 299 -17 q 168 18 201 -17 q 133 100 133 50 m 596 100 q 631 183 596 149 q 713 217 667 217 q 794 183 760 217 q 829 100 829 149 q 794 18 829 51 q 713 -17 761 -17 q 630 17 664 -17 q 596 100 596 51 m 1040 100 q 1074 183 1040 149 q 1157 217 1108 217 q 1240 183 1206 217 q 1274 100 1274 149 q 1240 17 1274 51 q 1157 -17 1206 -17 q 1074 17 1107 -17 q 1040 100 1040 50 z "},"†":{"ha":1006,"x_min":29,"x_max":976,"o":"m 29 444 q 36 547 36 506 q 31 635 36 579 l 132 632 l 236 629 l 328 628 l 419 626 l 415 726 l 413 828 l 411 919 l 408 1013 q 460 1006 444 1007 q 503 1004 476 1004 q 596 1013 543 1004 l 594 919 l 592 828 l 590 726 l 588 626 l 679 628 l 771 629 l 872 632 l 975 635 q 971 588 972 615 q 969 549 969 560 q 976 444 969 506 l 875 449 l 774 451 l 757 451 q 681 456 704 451 l 586 457 l 588 300 l 589 144 l 593 -100 l 597 -347 q 546 -340 563 -342 q 503 -339 529 -339 q 460 -340 476 -339 q 407 -347 443 -342 l 413 -100 l 418 144 l 419 300 l 421 457 l 326 456 q 231 451 299 451 l 131 449 l 29 444 z "},"‡":{"ha":1014,"x_min":31,"x_max":983,"o":"m 31 214 l 132 208 l 233 206 l 328 203 l 424 201 l 425 451 l 331 450 l 235 449 l 133 446 l 35 443 q 40 544 40 504 l 40 563 q 36 628 40 582 l 240 619 l 425 617 l 422 718 l 419 818 l 414 908 l 411 1000 q 463 996 440 997 q 507 994 486 994 q 597 1000 542 994 l 597 908 l 596 818 l 593 718 l 592 617 l 776 622 l 982 626 q 978 574 979 604 q 976 539 976 544 q 983 442 976 497 l 882 446 l 778 449 l 683 450 l 589 453 l 588 201 l 682 203 l 776 204 l 878 206 l 979 208 q 975 154 976 178 q 974 106 974 131 q 974 71 974 86 q 978 19 974 56 l 774 26 l 589 31 l 592 -165 l 594 -350 q 545 -346 567 -347 q 501 -344 524 -344 q 408 -350 465 -344 l 410 -258 l 413 -165 l 418 -68 l 421 31 l 328 29 l 236 26 l 133 25 l 32 22 q 36 72 35 50 q 38 115 38 94 q 31 214 38 154 z "},"ˆ":{"ha":465,"x_min":1,"x_max":468,"o":"m 1 858 q 60 895 43 883 q 110 931 78 907 q 206 1018 151 964 l 329 1017 q 354 974 342 994 q 378 940 357 968 q 468 846 414 894 q 410 835 435 842 q 353 815 385 828 q 338 850 343 839 q 313 893 328 872 q 292 919 306 904 q 261 953 278 935 q 218 919 236 935 q 185 890 200 904 q 111 814 149 857 q 88 827 93 825 q 60 838 83 829 q 38 848 44 846 q 1 858 32 850 z "},"‰":{"ha":1325,"x_min":43,"x_max":1281,"o":"m 43 775 q 100 949 43 879 q 244 1018 157 1018 q 388 949 331 1018 q 444 775 444 879 q 388 601 444 671 q 244 532 331 532 q 101 601 160 532 q 43 775 43 671 m 153 0 l 653 1001 q 692 996 676 996 q 729 1001 706 996 l 229 0 q 208 3 219 3 q 190 4 197 3 q 153 0 171 4 m 439 226 q 495 401 439 332 q 638 469 551 469 q 782 400 725 469 q 839 222 839 331 q 781 52 839 121 q 638 -17 724 -17 q 496 53 553 -17 q 439 226 439 122 m 881 226 q 938 400 881 331 q 1081 469 994 469 q 1224 399 1168 469 q 1281 222 1281 329 q 1223 52 1281 121 q 1081 -17 1165 -17 q 938 53 994 -17 q 881 226 881 122 m 638 414 q 561 226 561 414 q 638 39 561 39 q 717 215 717 39 q 699 367 717 321 q 638 414 681 414 m 244 963 q 167 775 167 963 q 243 588 167 588 q 321 763 321 588 q 303 917 321 871 q 244 963 286 963 m 1081 414 q 1003 226 1003 414 q 1079 39 1003 39 q 1158 215 1158 39 q 1140 367 1158 321 q 1081 414 1122 414 z "},"Š":{"ha":700,"x_min":29,"x_max":651,"o":"m 29 60 l 56 142 q 65 181 60 161 q 74 228 69 200 l 89 235 q 297 81 160 81 q 419 126 371 81 q 468 240 468 172 q 358 392 468 339 l 235 451 q 51 719 51 538 q 146 932 51 850 q 393 1014 240 1014 q 636 939 529 1014 q 617 901 625 918 q 606 874 610 883 q 590 829 601 864 q 578 794 582 808 l 563 794 q 381 921 499 921 q 272 881 314 921 q 231 778 231 840 q 335 642 231 693 l 449 585 q 606 469 560 529 q 651 317 651 410 q 550 81 651 174 q 290 -12 449 -12 q 29 60 157 -12 m 117 1269 q 147 1277 142 1275 q 175 1289 151 1279 q 196 1297 183 1292 q 228 1313 208 1301 q 267 1269 243 1294 q 300 1236 282 1253 q 325 1214 313 1225 q 376 1174 344 1197 q 405 1205 390 1188 q 428 1235 419 1222 q 444 1260 438 1247 q 468 1311 451 1274 q 497 1300 483 1304 q 519 1293 510 1296 q 549 1287 529 1290 q 583 1282 569 1283 q 530 1230 546 1247 q 494 1186 514 1213 q 472 1154 485 1174 q 444 1110 460 1135 l 321 1110 q 281 1149 301 1129 q 227 1194 261 1168 q 178 1231 193 1219 q 117 1269 154 1247 z "},"‹":{"ha":419,"x_min":31,"x_max":388,"o":"m 31 376 q 99 468 71 429 q 153 544 128 507 q 203 627 186 599 q 256 722 221 656 l 318 683 q 388 647 344 667 q 319 565 342 593 q 265 494 297 536 q 228 443 233 451 q 183 375 217 426 q 229 300 206 338 q 257 261 243 281 q 326 169 293 211 q 386 100 349 142 l 317 69 l 247 33 q 143 221 188 151 q 96 290 121 256 q 31 376 71 325 z "},"Œ":{"ha":1289,"x_min":42,"x_max":1249,"o":"m 1249 1000 q 1244 953 1244 967 l 1244 939 l 1247 885 q 1083 890 1169 885 q 974 894 997 894 l 914 893 l 915 569 l 985 568 q 1095 571 1047 568 q 1229 582 1143 574 q 1226 554 1228 572 q 1225 524 1225 536 q 1225 503 1225 514 q 1229 465 1225 492 l 1113 471 l 956 475 l 915 475 l 914 107 l 996 106 q 1108 108 1058 106 q 1247 119 1157 111 l 1243 61 q 1249 0 1243 39 l 1019 6 q 825 -1 976 6 q 717 -4 764 -4 q 553 -14 604 -14 q 181 122 319 -14 q 42 486 42 258 q 183 867 42 721 q 553 1013 325 1013 q 599 1011 581 1013 q 706 1004 688 1004 q 849 1000 776 1004 q 1013 992 921 996 q 1088 993 1063 992 q 1249 1000 1214 1000 m 692 119 q 711 178 704 136 q 718 290 718 219 l 719 725 q 683 883 719 840 q 551 926 647 926 q 329 808 414 926 q 244 500 244 690 q 329 187 244 307 q 551 67 414 67 q 633 81 596 67 q 692 119 671 94 z "},"‘":{"ha":382,"x_min":19,"x_max":336,"o":"m 336 1004 l 224 649 l 193 563 q 113 519 176 519 q 46 546 72 519 q 19 615 19 572 q 27 651 19 632 q 51 697 35 669 l 278 1033 q 336 1004 307 1018 z "},"’":{"ha":382,"x_min":21,"x_max":338,"o":"m 21 532 l 135 892 q 181 994 161 972 q 251 1017 201 1017 q 313 989 288 1017 q 338 921 338 961 q 308 842 338 888 l 82 500 q 21 532 57 522 z "},"“":{"ha":643,"x_min":19,"x_max":599,"o":"m 336 1004 l 224 649 l 193 563 q 113 519 176 519 q 46 546 72 519 q 19 615 19 572 q 27 651 19 632 q 51 697 35 669 l 278 1033 q 336 1004 307 1018 m 599 1004 l 485 649 l 456 563 q 375 519 439 519 q 308 547 333 519 q 282 615 282 574 q 314 697 282 649 l 539 1033 l 599 1004 z "},"”":{"ha":643,"x_min":21,"x_max":599,"o":"m 21 532 l 135 892 q 181 994 161 972 q 251 1017 201 1017 q 313 989 288 1017 q 338 921 338 961 q 308 842 338 888 l 82 500 q 21 532 57 522 m 283 532 l 396 892 q 442 994 422 972 q 513 1017 463 1017 q 574 989 549 1017 q 599 921 599 961 q 569 842 599 888 l 344 500 q 316 519 329 513 q 283 532 303 526 z "},"•":{"ha":311,"x_min":43,"x_max":267,"o":"m 43 393 q 75 472 43 440 q 153 504 107 504 q 233 472 200 504 q 267 393 267 440 q 234 315 267 347 q 153 282 201 282 q 75 314 107 282 q 43 393 43 346 z "},"–":{"ha":803,"x_min":11,"x_max":792,"o":"m 11 461 q 199 458 125 461 q 376 453 272 456 q 551 458 413 453 q 792 463 690 463 q 788 423 789 446 q 786 392 786 400 q 786 350 786 371 q 792 318 790 331 q 639 321 707 318 q 449 328 469 328 l 378 328 q 197 321 324 328 q 13 314 71 314 l 15 386 l 15 403 q 11 461 15 419 z "},"—":{"ha":1383,"x_min":42,"x_max":1342,"o":"m 42 413 l 42 578 l 1342 578 l 1342 413 l 42 413 z "},"˜":{"ha":461,"x_min":0,"x_max":461,"o":"m 0 850 q 24 906 13 889 q 57 940 35 922 q 100 965 79 957 q 144 974 121 974 q 193 965 167 974 q 282 929 219 957 q 340 914 321 914 q 411 968 386 914 q 461 946 432 950 l 442 896 q 388 840 425 865 q 321 815 351 815 q 246 833 292 815 l 165 867 q 110 876 138 876 q 50 832 64 876 q 24 844 33 840 q 0 850 14 849 z "},"™":{"ha":1074,"x_min":53,"x_max":940,"o":"m 53 919 l 53 1000 l 357 1000 l 357 918 l 250 919 l 250 500 l 158 500 l 158 919 l 53 919 m 340 500 l 429 1007 l 500 1007 l 615 725 q 632 678 624 704 q 640 621 640 651 l 643 650 q 665 725 649 685 l 781 1007 l 851 1007 l 940 500 l 851 500 l 806 779 l 804 794 l 803 811 l 803 868 l 788 811 l 781 789 l 778 781 l 663 494 l 619 494 l 503 781 l 500 790 l 493 811 l 478 868 q 479 847 479 861 q 479 825 479 832 l 479 811 l 478 793 l 475 779 l 429 500 l 340 500 z "},"š":{"ha":600,"x_min":38,"x_max":560,"o":"m 38 40 l 58 115 l 72 193 l 86 200 q 110 158 99 169 q 180 101 138 122 q 272 79 222 79 q 363 107 328 79 q 397 179 397 135 q 289 290 397 250 l 243 308 q 136 360 175 335 q 44 536 44 418 q 119 706 44 639 q 313 772 194 772 q 538 719 418 772 l 513 646 l 492 569 l 479 569 q 317 692 426 692 q 240 663 271 692 q 208 594 208 635 q 232 531 208 556 q 314 485 256 507 l 364 467 q 410 449 389 458 q 451 429 432 440 q 560 243 560 372 q 476 58 560 131 q 261 -14 393 -14 q 38 40 142 -14 m 67 976 q 97 984 92 982 q 125 996 101 986 q 146 1003 133 999 q 178 1019 158 1008 q 217 976 193 1001 q 250 943 232 960 q 275 921 263 932 q 326 881 294 904 q 355 912 340 894 q 378 942 369 929 q 394 967 388 954 q 418 1018 401 981 q 447 1007 433 1011 q 469 1000 460 1003 q 499 994 479 997 q 533 989 519 990 q 480 937 496 954 q 444 893 464 919 q 422 861 435 881 q 394 817 410 842 l 271 817 q 231 856 251 836 q 177 901 211 875 q 128 938 143 926 q 67 976 104 954 z "},"›":{"ha":421,"x_min":31,"x_max":390,"o":"m 31 103 q 102 184 71 146 q 161 257 133 222 q 243 378 199 310 q 153 506 192 454 q 101 569 121 547 q 35 646 63 614 l 99 682 l 165 722 q 222 621 210 642 q 274 539 243 586 q 390 376 318 472 q 274 211 319 281 q 213 111 250 175 q 167 33 189 72 l 108 64 q 74 82 85 76 q 31 103 51 93 z "},"œ":{"ha":1364,"x_min":47,"x_max":1326,"o":"m 736 647 q 753 669 743 657 q 774 688 763 681 q 1011 771 871 771 q 1235 675 1143 771 q 1326 442 1326 579 q 1325 405 1326 426 q 1319 356 1324 383 q 1179 360 1254 356 q 1068 364 1104 364 q 949 360 1022 364 q 842 357 876 357 l 842 349 q 899 156 842 226 q 1054 86 956 86 q 1301 192 1175 86 l 1314 186 l 1290 122 l 1275 57 q 1255 44 1269 53 q 1233 33 1240 36 q 1024 -17 1138 -17 q 736 113 849 -17 q 600 14 665 43 q 446 -15 535 -15 q 158 93 269 -15 q 47 374 47 201 q 160 660 47 549 q 449 771 272 771 q 699 686 599 771 l 736 647 m 1000 690 q 881 627 925 690 q 838 450 838 564 l 940 449 l 1063 450 l 1136 453 l 1138 482 q 1100 633 1138 576 q 1000 690 1063 690 m 446 689 q 301 608 351 689 q 251 372 251 526 q 446 74 251 74 q 585 153 536 74 q 633 381 633 232 q 583 607 633 525 q 446 689 533 689 z "},"Ÿ":{"ha":772,"x_min":-54,"x_max":826,"o":"m -54 1000 q 15 996 -25 997 q 76 994 56 994 l 107 994 q 161 994 133 994 q 206 1000 189 999 q 285 832 257 889 q 353 700 318 765 q 394 625 372 664 q 442 542 415 586 q 525 697 490 629 q 589 831 560 765 q 663 1000 606 867 l 742 996 l 826 1000 q 707 804 763 897 q 647 701 667 736 q 563 549 626 667 q 496 428 522 476 l 496 353 l 496 301 q 506 132 496 268 q 511 0 511 54 q 448 1 474 0 q 397 4 422 3 q 335 3 361 4 q 283 0 308 1 q 292 88 289 56 q 294 151 294 121 l 299 350 l 299 397 q 226 532 263 464 q 126 708 179 618 q 47 840 92 768 q -54 1000 11 897 m 153 1204 q 181 1274 153 1246 q 249 1301 208 1301 q 317 1273 289 1301 q 346 1204 346 1244 q 318 1136 346 1164 q 249 1108 290 1108 q 181 1136 208 1108 q 153 1204 153 1164 m 426 1204 q 454 1274 426 1246 q 522 1301 482 1301 q 590 1274 563 1301 q 618 1204 618 1246 q 590 1136 618 1164 q 522 1108 563 1108 q 454 1136 482 1108 q 426 1204 426 1164 z "}," ":{"ha":694,"x_min":0,"x_max":0,"o":""},"¡":{"ha":342,"x_min":60,"x_max":300,"o":"m 68 906 q 101 984 68 951 q 181 1017 133 1017 q 259 984 226 1017 q 292 907 292 951 q 260 826 292 860 q 181 793 228 793 q 101 826 135 793 q 68 906 68 860 m 218 725 l 296 143 l 300 94 q 178 -17 300 -17 q 92 13 124 -17 q 60 94 60 42 l 63 143 l 142 725 l 218 725 z "},"¢":{"ha":707,"x_min":47,"x_max":708,"o":"m 375 763 l 376 864 l 460 864 l 460 765 q 498 763 482 765 q 525 758 514 760 q 640 725 585 750 q 679 704 660 718 q 708 679 697 688 l 668 592 l 638 508 l 624 507 q 586 613 613 574 q 460 685 540 675 l 460 90 l 493 86 q 585 104 544 86 q 671 167 625 122 l 686 156 q 669 101 676 126 q 656 42 661 75 q 560 0 603 11 q 453 -11 518 -11 l 451 -128 l 374 -129 l 374 -4 q 278 17 310 6 q 208 54 247 28 q 90 194 132 108 q 47 381 47 279 q 101 587 47 494 q 251 726 156 679 q 306 749 281 742 q 375 763 331 757 m 374 129 l 374 663 q 321 615 338 635 q 251 390 251 526 q 318 178 251 260 q 374 129 336 154 z "},"£":{"ha":885,"x_min":43,"x_max":840,"o":"m 43 158 q 89 151 69 151 q 214 211 168 151 q 260 375 260 271 q 254 457 260 413 q 185 456 213 457 q 107 450 158 454 l 108 497 l 104 567 q 172 561 146 563 q 240 560 197 560 q 235 636 235 603 q 333 910 235 807 q 593 1014 431 1014 q 783 953 707 1014 q 821 919 799 943 q 799 890 810 904 q 771 850 781 867 q 751 814 754 821 q 731 767 740 793 l 719 771 q 586 936 701 936 q 472 872 514 936 q 431 697 431 808 q 432 639 431 658 q 442 560 433 619 q 683 578 543 560 l 681 517 l 683 450 q 573 458 607 457 q 476 460 539 460 l 444 460 l 444 443 q 433 337 444 388 q 406 256 421 286 q 357 193 390 226 q 327 168 344 182 q 292 143 310 154 l 415 140 l 482 142 q 638 151 569 142 q 840 186 706 160 q 832 132 838 167 q 826 63 826 97 l 831 0 q 646 1 736 0 q 449 6 556 3 q 235 3 378 6 q 44 0 93 0 q 51 42 50 29 q 53 75 53 56 q 51 122 53 113 q 43 158 44 144 z "},"¤":{"ha":686,"x_min":53,"x_max":582,"o":"m 53 293 l 133 372 q 93 503 93 432 q 133 633 93 572 l 54 710 q 106 765 76 740 l 188 683 q 321 726 244 726 q 449 685 390 726 l 529 767 q 582 708 564 743 l 504 633 q 536 572 526 603 q 546 504 546 540 q 501 369 546 431 l 582 290 l 571 276 l 558 264 l 528 236 l 449 317 q 318 272 389 272 q 189 317 249 272 l 104 236 l 92 250 l 79 263 l 65 278 l 53 293 m 169 500 q 213 394 169 438 q 319 350 257 350 q 425 394 381 350 q 469 500 469 439 q 425 606 469 561 q 319 650 381 650 q 214 606 258 650 q 169 500 169 561 z "},"¥":{"ha":940,"x_min":31,"x_max":910,"o":"m 31 1000 q 100 996 60 997 q 161 994 140 994 l 192 994 q 233 994 213 994 q 290 1000 268 999 q 368 832 344 881 q 438 700 388 790 l 525 542 q 574 631 554 592 q 608 697 594 671 q 689 865 651 781 q 746 1000 700 890 l 826 996 l 910 1000 q 791 807 838 886 q 731 703 744 728 l 615 488 l 858 488 l 858 433 l 585 433 l 582 401 l 582 371 l 860 371 l 860 319 l 582 319 q 572 190 572 257 q 576 110 572 150 q 594 0 581 69 q 532 1 557 0 q 482 4 507 3 q 419 3 446 4 q 368 0 393 1 q 369 123 368 100 q 383 301 369 146 l 385 318 l 86 318 l 86 371 l 385 371 l 383 397 l 367 433 l 88 433 l 86 488 l 335 489 l 210 708 q 133 838 169 779 q 31 1000 96 897 z "},"§":{"ha":825,"x_min":44,"x_max":781,"o":"m 178 603 q 115 672 133 635 q 97 769 97 710 q 182 949 97 882 q 413 1015 267 1015 q 669 938 575 1015 q 763 721 763 861 l 590 725 q 542 849 590 803 q 410 894 493 894 q 319 867 354 894 q 283 796 283 840 q 306 731 283 754 q 397 672 328 707 l 599 575 q 781 314 781 486 q 650 78 781 178 q 711 12 693 47 q 729 -81 729 -24 q 699 -206 729 -147 q 406 -346 625 -346 q 147 -267 236 -346 q 57 -37 57 -189 l 228 -43 q 276 -181 228 -129 q 404 -233 324 -233 q 503 -200 464 -233 q 542 -115 542 -167 q 524 -55 542 -78 q 453 -7 506 -32 l 235 97 q 94 209 143 143 q 44 356 44 275 q 92 508 44 431 q 178 603 115 550 m 519 396 l 292 515 q 217 394 217 454 q 236 328 217 358 q 293 281 256 297 l 542 161 q 613 275 613 214 q 519 396 613 350 z "},"¨":{"ha":396,"x_min":-35,"x_max":431,"o":"m -35 911 q -7 981 -35 953 q 61 1008 21 1008 q 130 980 101 1008 q 158 911 158 951 q 131 843 158 871 q 61 815 103 815 q -7 843 21 815 q -35 911 -35 871 m 239 911 q 267 981 239 953 q 335 1008 294 1008 q 403 981 375 1008 q 431 911 431 953 q 403 843 431 871 q 335 815 375 815 q 267 843 294 815 q 239 911 239 871 z "},"©":{"ha":1294,"x_min":81,"x_max":1117,"o":"m 81 501 q 119 699 81 604 q 233 867 158 793 q 401 980 307 942 q 599 1018 496 1018 q 794 981 700 1018 q 965 867 889 943 q 1117 501 1117 715 q 965 133 1117 285 q 599 -18 814 -18 q 232 133 383 -18 q 81 501 81 285 m 163 501 q 196 331 163 413 q 291 187 229 250 q 433 91 353 124 q 599 58 514 58 q 765 90 686 58 q 906 186 843 121 q 1002 332 969 251 q 1035 500 1035 413 q 1002 669 1035 589 q 906 814 969 750 q 765 910 843 878 q 599 943 686 943 q 435 911 514 943 q 292 815 356 879 q 196 670 229 750 q 163 501 163 590 m 831 747 l 779 674 q 675 724 733 711 q 626 728 650 728 q 480 674 543 728 q 404 536 417 621 q 400 493 400 513 q 453 344 400 407 q 589 267 506 281 q 625 264 614 264 q 750 299 692 264 l 778 321 l 829 246 q 735 191 785 210 q 626 172 685 172 q 392 264 486 172 q 297 489 297 356 q 303 553 297 519 q 321 618 308 586 q 436 765 354 710 q 619 821 518 821 q 678 817 649 821 q 831 747 763 803 z "},"ª":{"ha":671,"x_min":53,"x_max":568,"o":"m 67 458 l 568 458 l 568 351 l 67 351 l 67 458 m 450 915 l 450 1000 l 567 1000 l 568 525 l 449 525 l 449 615 l 444 606 q 380 539 424 564 q 279 514 336 514 q 235 518 258 514 q 103 601 154 535 q 53 757 53 667 q 53 793 53 775 q 58 817 57 810 q 117 939 74 889 q 192 996 149 976 q 282 1015 236 1015 q 438 938 385 1015 l 444 926 l 450 915 m 174 764 l 176 735 q 288 619 193 638 q 315 618 297 618 q 342 621 333 618 q 449 735 431 639 q 451 764 451 744 q 449 794 451 785 q 413 869 440 839 q 343 910 385 900 q 313 913 332 913 q 224 880 263 913 q 176 793 186 847 l 174 764 z "},"«":{"ha":681,"x_min":31,"x_max":650,"o":"m 31 376 q 99 468 71 429 q 153 544 128 507 q 203 627 186 599 q 256 722 221 656 l 318 683 q 388 647 344 667 q 319 565 342 593 q 265 494 297 536 q 228 443 233 451 q 183 375 217 426 q 229 300 206 338 q 257 261 243 281 q 326 169 293 211 q 386 100 349 142 l 317 69 l 247 33 q 143 221 188 151 q 96 290 121 256 q 31 376 71 325 m 293 376 q 360 468 329 425 q 414 544 392 511 q 465 627 447 599 q 517 722 482 656 l 579 683 l 650 647 q 531 497 576 560 q 481 429 496 451 q 444 375 458 396 l 519 261 q 647 100 561 200 q 609 84 625 92 q 578 69 593 76 l 508 33 q 404 221 449 151 q 343 310 381 260 q 293 376 313 350 z "},"¬":{"ha":907,"x_min":53,"x_max":786,"o":"m 53 500 l 53 650 l 786 650 l 786 300 l 669 300 l 669 500 l 53 500 z "},"®":{"ha":1294,"x_min":81,"x_max":1117,"o":"m 81 501 q 119 699 81 604 q 233 867 158 793 q 401 980 307 942 q 599 1018 496 1018 q 794 981 700 1018 q 965 867 889 943 q 1117 501 1117 715 q 965 133 1117 285 q 599 -18 814 -18 q 232 133 383 -18 q 81 501 81 285 m 163 501 q 196 331 163 413 q 291 187 229 250 q 433 91 353 124 q 599 58 514 58 q 765 90 686 58 q 906 186 843 121 q 1002 332 969 251 q 1035 500 1035 413 q 1002 669 1035 589 q 906 814 969 750 q 765 910 843 878 q 599 943 686 943 q 435 911 514 943 q 292 815 356 879 q 196 670 229 750 q 163 501 163 590 m 425 194 l 425 818 l 593 818 q 736 782 689 818 q 796 683 783 746 q 800 639 800 660 q 764 531 800 575 q 667 475 728 486 l 649 474 l 835 194 l 717 194 l 525 492 l 525 194 l 425 194 m 525 529 l 576 529 q 697 631 697 529 q 582 736 697 736 l 525 736 l 525 529 z "},"¯":{"ha":436,"x_min":-6,"x_max":439,"o":"m -6 818 l -4 888 l -6 949 q 125 945 57 949 q 208 942 193 942 q 286 943 261 942 q 439 950 411 950 l 436 886 l 439 822 q 326 826 386 822 q 242 831 267 831 l 204 831 q -6 818 121 831 z "},"±":{"ha":825,"x_min":61,"x_max":703,"o":"m 703 121 l 703 26 l 61 26 l 61 121 l 703 121 m 429 629 l 429 460 l 703 460 l 703 365 l 429 365 l 429 196 l 335 196 l 335 365 l 61 365 l 61 460 l 335 460 l 335 629 l 429 629 z "},"´":{"ha":392,"x_min":100,"x_max":451,"o":"m 100 815 l 185 921 l 257 1017 l 358 1013 l 451 1017 q 361 961 394 983 q 293 910 328 939 q 247 872 267 890 q 192 814 228 853 q 166 817 181 817 q 144 818 151 817 l 100 815 z "},"µ":{"ha":865,"x_min":101,"x_max":775,"o":"m 231 624 l 231 213 q 250 81 231 114 q 319 47 269 47 q 451 160 399 47 q 504 443 504 272 l 504 624 l 632 624 l 632 168 q 645 76 632 106 q 685 47 658 47 q 728 76 713 47 q 744 161 744 104 l 744 181 l 774 181 l 775 168 l 775 150 q 742 31 775 74 q 650 -12 710 -12 q 545 47 582 -12 q 508 226 508 107 q 423 45 476 103 q 289 -12 369 -12 q 188 24 231 -12 q 132 131 149 61 l 131 92 q 175 -106 131 1 q 219 -232 219 -212 q 204 -275 219 -260 q 161 -290 189 -290 q 115 -267 129 -290 q 101 -193 101 -243 l 104 -112 l 107 11 l 106 151 l 103 283 l 103 624 l 231 624 z "},"¶":{"ha":910,"x_min":53,"x_max":789,"o":"m 338 1000 l 789 1000 l 789 910 l 336 910 q 199 851 256 910 q 142 711 142 793 q 199 574 142 631 q 336 517 256 517 l 426 517 l 426 840 l 522 840 l 522 0 l 426 0 l 426 426 l 336 426 q 136 510 219 426 q 53 713 53 593 q 135 916 53 832 q 338 1000 218 1000 m 610 0 l 610 840 l 706 840 l 706 0 l 610 0 z "},"·":{"ha":311,"x_min":43,"x_max":267,"o":"m 43 393 q 75 472 43 440 q 153 504 107 504 q 233 472 200 504 q 267 393 267 440 q 234 315 267 347 q 153 282 201 282 q 75 314 107 282 q 43 393 43 346 z "},"∙":{"ha":311,"x_min":43,"x_max":267,"o":"m 43 393 q 75 472 43 440 q 153 504 107 504 q 233 472 200 504 q 267 393 267 440 q 234 315 267 347 q 153 282 201 282 q 75 314 107 282 q 43 393 43 346 z "},"¸":{"ha":286,"x_min":78,"x_max":344,"o":"m 78 -261 q 174 -283 126 -283 q 240 -262 214 -283 q 265 -204 265 -240 q 183 -131 265 -131 q 115 -153 144 -131 l 92 -144 l 118 -89 q 134 -53 122 -81 q 160 11 146 -26 l 193 3 l 163 -94 q 210 -89 192 -89 q 307 -119 269 -89 q 344 -199 344 -150 q 293 -285 344 -247 q 171 -322 242 -322 q 134 -321 151 -322 q 81 -314 117 -319 l 82 -299 l 78 -261 z "},"º":{"ha":671,"x_min":53,"x_max":568,"o":"m 61 351 l 61 458 l 561 458 l 561 351 l 61 351 m 53 765 q 53 787 53 778 q 58 818 53 796 q 147 965 78 910 q 308 1021 215 1021 q 342 1018 329 1021 q 361 1015 356 1015 q 510 928 453 997 q 568 767 568 858 q 563 711 568 735 q 474 566 544 622 q 310 510 404 510 q 126 583 200 510 q 53 765 53 657 m 171 765 q 174 738 171 747 q 282 621 189 642 q 311 618 292 618 q 400 650 363 618 q 447 736 438 682 q 450 767 450 758 q 419 858 450 819 q 339 908 389 897 q 308 911 329 911 q 254 900 281 911 q 174 793 186 869 q 171 778 171 786 q 171 765 171 769 z "},"»":{"ha":683,"x_min":31,"x_max":651,"o":"m 31 103 q 102 184 71 146 q 161 257 133 222 q 243 378 199 310 q 153 506 192 454 q 101 569 121 547 q 35 646 63 614 l 99 682 l 165 722 q 222 621 210 642 q 274 539 243 586 q 390 376 318 472 q 274 211 319 281 q 213 111 250 175 q 167 33 189 72 l 108 64 q 74 82 85 76 q 31 103 51 93 m 293 103 q 365 185 340 156 q 422 257 397 222 q 504 378 460 310 q 458 447 472 426 q 414 506 444 467 q 296 646 365 569 l 363 682 l 426 722 q 483 621 471 642 q 535 539 504 586 q 651 376 579 472 q 536 211 578 279 q 485 131 511 174 q 428 33 460 89 l 369 64 l 293 103 z "},"¿":{"ha":550,"x_min":36,"x_max":531,"o":"m 181 907 q 213 985 181 951 q 292 1018 244 1018 q 371 985 338 1018 q 404 907 404 951 q 372 827 404 860 q 293 794 339 794 q 213 826 244 794 q 181 907 181 858 m 125 597 l 113 603 q 124 638 119 621 q 132 688 128 656 q 282 733 201 733 q 417 690 364 733 q 469 579 469 647 q 451 505 469 539 q 364 389 432 471 l 321 338 q 251 244 267 272 q 236 179 236 215 q 261 117 236 143 q 322 90 286 90 q 486 192 415 90 l 501 189 q 506 158 503 181 q 513 120 510 135 q 519 90 515 106 q 531 49 522 75 q 395 -1 453 13 q 272 -15 338 -15 q 104 44 172 -15 q 36 193 36 104 q 55 272 36 240 q 151 389 74 303 l 186 428 q 249 512 232 479 q 267 572 267 544 q 207 629 267 629 q 125 597 165 629 z "},"À":{"ha":901,"x_min":-31,"x_max":931,"o":"m -31 0 l 24 107 q 196 497 88 239 q 304 764 228 574 q 381 956 369 924 l 397 1000 q 486 994 453 994 l 507 994 q 574 1000 533 994 l 589 947 q 667 700 631 808 q 736 497 685 646 q 875 126 825 244 l 931 0 l 807 4 l 682 0 l 644 131 q 610 243 640 149 q 582 331 593 299 l 424 332 l 235 329 q 197 239 208 265 q 153 125 168 167 l 110 0 l 39 4 l -31 0 m 426 794 l 275 433 l 415 431 l 551 432 l 426 794 m 222 1313 q 285 1310 244 1310 q 318 1308 301 1308 l 343 1308 q 422 1313 368 1308 l 493 1217 l 576 1110 l 521 1113 l 483 1111 q 431 1167 450 1149 q 382 1211 413 1186 q 313 1262 342 1243 q 222 1313 283 1281 z "},"Á":{"ha":901,"x_min":-31,"x_max":931,"o":"m -31 0 l 24 107 q 196 497 88 239 q 304 764 228 574 q 381 956 369 924 l 397 1000 q 486 994 453 994 l 507 994 q 574 1000 533 994 l 589 947 q 667 700 631 808 q 736 497 685 646 q 875 126 825 244 l 931 0 l 807 4 l 682 0 l 644 131 q 610 243 640 149 q 582 331 593 299 l 424 332 l 235 329 q 197 239 208 265 q 153 125 168 167 l 110 0 l 39 4 l -31 0 m 426 794 l 275 433 l 415 431 l 551 432 l 426 794 m 354 1108 l 439 1214 l 511 1310 l 613 1306 l 706 1310 q 615 1254 649 1276 q 547 1203 582 1232 q 501 1165 521 1183 q 446 1107 482 1146 q 420 1110 435 1110 q 399 1111 406 1110 l 354 1108 z "},"Â":{"ha":901,"x_min":-31,"x_max":931,"o":"m -31 0 l 24 107 q 196 497 88 239 q 304 764 228 574 q 381 956 369 924 l 397 1000 q 486 994 453 994 l 507 994 q 574 1000 533 994 l 589 947 q 667 700 631 808 q 736 497 685 646 q 875 126 825 244 l 931 0 l 807 4 l 682 0 l 644 131 q 610 243 640 149 q 582 331 593 299 l 424 332 l 235 329 q 197 239 208 265 q 153 125 168 167 l 110 0 l 39 4 l -31 0 m 426 794 l 275 433 l 415 431 l 551 432 l 426 794 m 219 1151 q 278 1188 261 1176 q 328 1224 296 1200 q 424 1311 369 1257 l 547 1310 q 572 1267 560 1288 q 596 1233 575 1261 q 686 1139 632 1188 q 628 1128 653 1135 q 571 1108 603 1121 q 556 1143 561 1132 q 531 1186 546 1165 q 510 1213 524 1197 q 479 1246 496 1228 q 436 1213 454 1228 q 403 1183 418 1197 q 329 1107 367 1150 q 306 1120 311 1118 q 278 1131 301 1122 q 256 1141 263 1139 q 219 1151 250 1143 z "},"Ã":{"ha":901,"x_min":-31,"x_max":931,"o":"m -31 0 l 24 107 q 196 497 88 239 q 304 764 228 574 q 381 956 369 924 l 397 1000 q 486 994 453 994 l 507 994 q 574 1000 533 994 l 589 947 q 667 700 631 808 q 736 497 685 646 q 875 126 825 244 l 931 0 l 807 4 l 682 0 l 644 131 q 610 243 640 149 q 582 331 593 299 l 424 332 l 235 329 q 197 239 208 265 q 153 125 168 167 l 110 0 l 39 4 l -31 0 m 426 794 l 275 433 l 415 431 l 551 432 l 426 794 m 219 1143 q 243 1199 232 1182 q 276 1233 254 1215 q 319 1258 299 1250 q 364 1267 340 1267 q 413 1258 386 1267 q 501 1222 439 1250 q 560 1207 540 1207 q 631 1261 606 1207 q 681 1239 651 1243 l 661 1189 q 608 1133 644 1158 q 540 1108 571 1108 q 465 1126 511 1108 l 385 1160 q 329 1169 357 1169 q 269 1125 283 1169 q 243 1138 253 1133 q 219 1143 233 1142 z "},"Ä":{"ha":901,"x_min":-31,"x_max":931,"o":"m 186 993 q 210 1050 186 1026 q 267 1074 233 1074 q 326 1050 301 1074 q 351 993 351 1026 q 327 933 351 957 q 267 908 303 908 q 209 933 232 908 q 186 993 186 957 m 615 993 q 640 1051 615 1028 q 700 1074 664 1074 q 756 1050 732 1074 q 779 992 779 1026 q 756 933 779 958 q 700 908 732 908 q 640 933 664 908 q 615 993 615 957 m -31 0 l 24 107 q 196 497 88 239 q 304 764 228 574 q 381 956 369 924 l 397 1000 q 486 994 453 994 l 507 994 q 574 1000 533 994 l 589 947 q 667 700 631 808 q 736 497 685 646 q 875 126 825 244 l 931 0 l 807 4 l 682 0 l 644 131 q 610 243 640 149 q 582 331 593 299 l 424 332 l 235 329 q 197 239 208 265 q 153 125 168 167 l 110 0 l 39 4 l -31 0 m 426 794 l 275 433 l 415 431 l 551 432 l 426 794 z "},"Å":{"ha":901,"x_min":-31,"x_max":931,"o":"m 344 1151 q 384 1238 344 1203 q 481 1274 424 1274 q 579 1238 539 1274 q 619 1150 619 1201 q 579 1065 619 1100 q 482 1031 539 1031 q 385 1065 425 1031 q 344 1151 344 1100 m -31 0 l 24 107 q 196 497 88 239 q 304 764 228 574 q 381 956 369 924 l 397 1000 q 486 994 453 994 l 507 994 q 574 1000 533 994 l 589 947 q 667 700 631 808 q 736 497 685 646 q 875 126 825 244 l 931 0 l 807 4 l 682 0 l 644 131 q 610 243 640 149 q 582 331 593 299 l 424 332 l 235 329 q 197 239 208 265 q 153 125 168 167 l 110 0 l 39 4 l -31 0 m 418 1150 q 436 1106 418 1124 q 482 1088 454 1088 q 528 1106 508 1088 q 547 1150 547 1124 q 528 1197 547 1178 q 481 1217 508 1217 q 436 1197 454 1217 q 418 1150 418 1178 m 426 794 l 275 433 l 415 431 l 551 432 l 426 794 z "},"Æ":{"ha":1224,"x_min":-31,"x_max":1186,"o":"m -31 0 l 129 231 q 354 567 247 400 q 525 842 453 719 l 615 1000 l 693 996 l 896 992 q 1006 997 904 992 q 1185 1001 1108 1001 l 1182 939 l 1185 885 q 1048 890 1128 885 q 924 894 968 894 l 851 893 l 853 569 l 906 569 q 1030 575 938 569 q 1167 581 1122 581 l 1163 519 l 1167 465 l 1051 471 q 975 472 1029 471 q 900 474 921 474 l 893 474 l 851 474 l 851 107 l 883 107 l 929 108 q 1044 111 994 108 q 1185 122 1093 114 l 1181 64 q 1186 0 1181 40 q 1026 4 1110 0 q 914 8 943 8 l 769 7 l 642 0 l 649 138 l 654 303 l 654 331 l 485 335 l 314 331 q 272 267 283 283 q 239 214 249 231 q 185 119 208 161 q 122 0 157 68 q 75 4 103 3 q 43 6 47 6 q -31 0 15 6 m 654 872 l 378 436 q 478 434 426 436 q 532 432 531 432 l 654 433 l 654 872 z "},"Ç":{"ha":919,"x_min":47,"x_max":903,"o":"m 903 928 q 892 881 897 906 q 883 839 886 857 q 878 800 881 821 q 875 764 875 779 l 860 760 q 575 922 754 922 q 340 808 424 922 q 257 489 257 694 q 347 188 257 299 q 594 78 438 78 q 742 110 678 78 q 883 225 806 142 l 894 219 l 882 140 q 875 85 875 97 q 875 60 875 74 q 775 15 813 26 q 567 -14 675 -14 l 511 -12 l 506 -42 q 560 -35 538 -35 q 666 -69 625 -35 q 707 -156 707 -103 q 651 -253 707 -212 q 517 -293 596 -293 q 473 -292 492 -293 q 418 -283 454 -290 l 418 -267 q 413 -225 418 -243 q 469 -244 444 -237 q 519 -251 494 -251 q 592 -226 564 -251 q 619 -162 619 -201 q 529 -81 619 -81 q 456 -107 489 -81 q 429 -96 443 -100 l 474 -7 q 342 25 386 8 q 251 76 299 42 q 100 258 153 147 q 47 500 47 368 q 192 873 47 733 q 581 1013 338 1013 q 772 985 676 1013 q 833 963 811 972 q 903 928 854 954 z "},"È":{"ha":660,"x_min":75,"x_max":619,"o":"m 75 0 l 85 154 q 88 344 85 222 q 92 493 92 465 l 89 697 q 86 799 89 756 q 76 1000 76 951 l 142 997 l 349 993 q 478 997 389 993 q 618 1000 567 1000 l 617 951 l 619 886 q 489 890 558 886 q 386 894 419 894 l 286 893 l 285 736 l 286 569 l 354 568 q 493 569 469 568 q 600 581 557 576 l 596 521 l 599 465 q 471 469 542 465 q 357 474 400 474 l 310 474 l 285 474 l 283 281 l 283 192 l 285 106 l 326 106 q 426 108 383 106 q 619 118 578 118 l 617 57 l 618 0 q 462 1 522 0 q 344 4 401 3 l 204 4 l 75 0 m 101 1313 q 164 1310 124 1310 q 197 1308 181 1308 l 222 1308 q 301 1313 247 1308 l 372 1217 l 456 1110 l 400 1113 l 363 1111 q 310 1167 329 1149 q 261 1211 292 1186 q 192 1262 221 1243 q 101 1313 163 1281 z "},"É":{"ha":660,"x_min":75,"x_max":619,"o":"m 75 0 l 85 154 q 88 344 85 222 q 92 493 92 465 l 89 697 q 86 799 89 756 q 76 1000 76 951 l 142 997 l 349 993 q 478 997 389 993 q 618 1000 567 1000 l 617 951 l 619 886 q 489 890 558 886 q 386 894 419 894 l 286 893 l 285 736 l 286 569 l 354 568 q 493 569 469 568 q 600 581 557 576 l 596 521 l 599 465 q 471 469 542 465 q 357 474 400 474 l 310 474 l 285 474 l 283 281 l 283 192 l 285 106 l 326 106 q 426 108 383 106 q 619 118 578 118 l 617 57 l 618 0 q 462 1 522 0 q 344 4 401 3 l 204 4 l 75 0 m 233 1108 l 318 1214 l 390 1310 l 492 1306 l 585 1310 q 494 1254 528 1276 q 426 1203 461 1232 q 381 1165 400 1183 q 325 1107 361 1146 q 299 1110 314 1110 q 278 1111 285 1110 l 233 1108 z "},"Ê":{"ha":660,"x_min":75,"x_max":619,"o":"m 75 0 l 85 154 q 88 344 85 222 q 92 493 92 465 l 89 697 q 86 799 89 756 q 76 1000 76 951 l 142 997 l 349 993 q 478 997 389 993 q 618 1000 567 1000 l 617 951 l 619 886 q 489 890 558 886 q 386 894 419 894 l 286 893 l 285 736 l 286 569 l 354 568 q 493 569 469 568 q 600 581 557 576 l 596 521 l 599 465 q 471 469 542 465 q 357 474 400 474 l 310 474 l 285 474 l 283 281 l 283 192 l 285 106 l 326 106 q 426 108 383 106 q 619 118 578 118 l 617 57 l 618 0 q 462 1 522 0 q 344 4 401 3 l 204 4 l 75 0 m 99 1151 q 158 1188 140 1176 q 207 1224 175 1200 q 303 1311 249 1257 l 426 1310 q 451 1267 439 1288 q 475 1233 454 1261 q 565 1139 511 1188 q 507 1128 532 1135 q 450 1108 482 1121 q 435 1143 440 1132 q 410 1186 425 1165 q 389 1213 403 1197 q 358 1246 375 1228 q 315 1213 333 1228 q 282 1183 297 1197 q 208 1107 246 1150 q 185 1120 190 1118 q 157 1131 181 1122 q 135 1141 142 1139 q 99 1151 129 1143 z "},"Ë":{"ha":660,"x_min":75,"x_max":619,"o":"m 75 0 l 85 154 q 88 344 85 222 q 92 493 92 465 l 89 697 q 86 799 89 756 q 76 1000 76 951 l 142 997 l 349 993 q 478 997 389 993 q 618 1000 567 1000 l 617 951 l 619 886 q 489 890 558 886 q 386 894 419 894 l 286 893 l 285 736 l 286 569 l 354 568 q 493 569 469 568 q 600 581 557 576 l 596 521 l 599 465 q 471 469 542 465 q 357 474 400 474 l 310 474 l 285 474 l 283 281 l 283 192 l 285 106 l 326 106 q 426 108 383 106 q 619 118 578 118 l 617 57 l 618 0 q 462 1 522 0 q 344 4 401 3 l 204 4 l 75 0 m 97 1204 q 125 1274 97 1246 q 193 1301 153 1301 q 262 1273 233 1301 q 290 1204 290 1244 q 263 1136 290 1164 q 193 1108 235 1108 q 125 1136 153 1108 q 97 1204 97 1164 m 371 1204 q 399 1274 371 1246 q 467 1301 426 1301 q 535 1274 507 1301 q 563 1204 563 1246 q 535 1136 563 1164 q 467 1108 507 1108 q 399 1136 426 1108 q 371 1204 371 1164 z "},"Ì":{"ha":369,"x_min":-43,"x_max":311,"o":"m 71 999 q 124 997 97 999 q 183 993 151 994 q 242 996 203 993 q 297 999 282 999 l 289 853 q 286 714 289 790 q 279 475 279 524 l 282 301 q 289 154 282 258 q 296 0 296 50 l 186 4 l 71 0 l 79 151 q 84 324 79 206 q 89 489 89 443 l 86 697 l 71 999 m -43 1313 q 19 1310 -21 1310 q 53 1308 36 1308 l 78 1308 q 157 1313 103 1308 l 228 1217 l 311 1110 l 256 1113 l 218 1111 q 166 1167 185 1149 q 117 1211 147 1186 q 47 1262 76 1243 q -43 1313 18 1281 z "},"Í":{"ha":369,"x_min":71,"x_max":440,"o":"m 71 999 q 124 997 97 999 q 183 993 151 994 q 242 996 203 993 q 297 999 282 999 l 289 853 q 286 714 289 790 q 279 475 279 524 l 282 301 q 289 154 282 258 q 296 0 296 50 l 186 4 l 71 0 l 79 151 q 84 324 79 206 q 89 489 89 443 l 86 697 l 71 999 m 89 1108 l 174 1214 l 246 1310 l 347 1306 l 440 1310 q 350 1254 383 1276 q 282 1203 317 1232 q 236 1165 256 1183 q 181 1107 217 1146 q 155 1110 169 1110 q 133 1111 140 1110 l 89 1108 z "},"Î":{"ha":369,"x_min":-46,"x_max":421,"o":"m 71 999 q 124 997 97 999 q 183 993 151 994 q 242 996 203 993 q 297 999 282 999 l 289 853 q 286 714 289 790 q 279 475 279 524 l 282 301 q 289 154 282 258 q 296 0 296 50 l 186 4 l 71 0 l 79 151 q 84 324 79 206 q 89 489 89 443 l 86 697 l 71 999 m -46 1151 q 13 1188 -4 1176 q 63 1224 31 1200 q 158 1311 104 1257 l 282 1310 q 307 1267 294 1288 q 331 1233 310 1261 q 421 1139 367 1188 q 363 1128 388 1135 q 306 1108 338 1121 q 290 1143 296 1132 q 265 1186 281 1165 q 244 1213 258 1197 q 214 1246 231 1228 q 171 1213 189 1228 q 138 1183 153 1197 q 64 1107 101 1150 q 41 1120 46 1118 q 13 1131 36 1122 q -9 1141 -3 1139 q -46 1151 -15 1143 z "},"Ï":{"ha":369,"x_min":-47,"x_max":418,"o":"m 71 999 q 124 997 97 999 q 183 993 151 994 q 242 996 203 993 q 297 999 282 999 l 289 853 q 286 714 289 790 q 279 475 279 524 l 282 301 q 289 154 282 258 q 296 0 296 50 l 186 4 l 71 0 l 79 151 q 84 324 79 206 q 89 489 89 443 l 86 697 l 71 999 m -47 1204 q -19 1274 -47 1246 q 49 1301 8 1301 q 117 1273 89 1301 q 146 1204 146 1244 q 118 1136 146 1164 q 49 1108 90 1108 q -19 1136 8 1108 q -47 1204 -47 1164 m 226 1204 q 254 1274 226 1246 q 322 1301 282 1301 q 390 1274 363 1301 q 418 1204 418 1246 q 390 1136 418 1164 q 322 1108 363 1108 q 254 1136 282 1108 q 226 1204 226 1164 z "},"Ñ":{"ha":983,"x_min":71,"x_max":906,"o":"m 71 1000 l 136 996 l 206 1000 q 311 865 258 932 q 444 700 379 781 l 665 442 l 793 294 l 793 346 l 793 443 l 794 553 l 793 701 l 785 1000 l 846 997 l 906 1000 l 900 846 q 897 663 900 793 q 894 514 894 532 l 896 357 q 899 174 896 288 q 903 0 903 60 l 838 3 l 772 0 l 482 358 l 238 643 l 186 701 l 186 574 l 185 411 l 185 396 l 185 356 l 192 0 l 132 3 l 75 0 l 81 169 q 83 365 81 226 q 86 513 86 504 l 85 700 l 71 1000 m 261 1143 q 285 1199 274 1182 q 318 1233 296 1215 q 361 1258 340 1250 q 406 1267 382 1267 q 454 1258 428 1267 q 543 1222 481 1250 q 601 1207 582 1207 q 672 1261 647 1207 q 722 1239 693 1243 l 703 1189 q 649 1133 686 1158 q 582 1108 613 1108 q 507 1126 553 1108 l 426 1160 q 371 1169 399 1169 q 311 1125 325 1169 q 285 1138 294 1133 q 261 1143 275 1142 z "},"Ò":{"ha":1150,"x_min":44,"x_max":1106,"o":"m 44 489 q 190 869 44 725 q 574 1014 336 1014 q 958 872 810 1014 q 1106 501 1106 729 q 957 131 1106 274 q 568 -12 808 -12 q 190 126 336 -12 q 44 489 44 265 m 569 928 q 335 817 415 928 q 254 496 254 707 q 338 179 254 290 q 574 68 421 68 q 810 176 726 68 q 893 485 893 285 q 861 727 893 636 q 757 869 829 818 q 569 928 672 928 m 346 1313 q 408 1310 368 1310 q 442 1308 425 1308 l 467 1308 q 546 1313 492 1308 l 617 1217 l 700 1110 l 644 1113 l 607 1111 q 555 1167 574 1149 q 506 1211 536 1186 q 436 1262 465 1243 q 346 1313 407 1281 z "},"Ó":{"ha":1150,"x_min":44,"x_max":1106,"o":"m 44 489 q 190 869 44 725 q 574 1014 336 1014 q 958 872 810 1014 q 1106 501 1106 729 q 957 131 1106 274 q 568 -12 808 -12 q 190 126 336 -12 q 44 489 44 265 m 569 928 q 335 817 415 928 q 254 496 254 707 q 338 179 254 290 q 574 68 421 68 q 810 176 726 68 q 893 485 893 285 q 861 727 893 636 q 757 869 829 818 q 569 928 672 928 m 479 1108 l 564 1214 l 636 1310 l 738 1306 l 831 1310 q 740 1254 774 1276 q 672 1203 707 1232 q 626 1165 646 1183 q 571 1107 607 1146 q 545 1110 560 1110 q 524 1111 531 1110 l 479 1108 z "},"Ô":{"ha":1150,"x_min":44,"x_max":1106,"o":"m 44 489 q 190 869 44 725 q 574 1014 336 1014 q 958 872 810 1014 q 1106 501 1106 729 q 957 131 1106 274 q 568 -12 808 -12 q 190 126 336 -12 q 44 489 44 265 m 569 928 q 335 817 415 928 q 254 496 254 707 q 338 179 254 290 q 574 68 421 68 q 810 176 726 68 q 893 485 893 285 q 861 727 893 636 q 757 869 829 818 q 569 928 672 928 m 343 1151 q 402 1188 385 1176 q 451 1224 419 1200 q 547 1311 493 1257 l 671 1310 q 696 1267 683 1288 q 719 1233 699 1261 q 810 1139 756 1188 q 751 1128 776 1135 q 694 1108 726 1121 q 679 1143 685 1132 q 654 1186 669 1165 q 633 1213 647 1197 q 603 1246 619 1228 q 560 1213 578 1228 q 526 1183 542 1197 q 453 1107 490 1150 q 430 1120 435 1118 q 401 1131 425 1122 q 380 1141 386 1139 q 343 1151 374 1143 z "},"Õ":{"ha":1150,"x_min":44,"x_max":1106,"o":"m 44 489 q 190 869 44 725 q 574 1014 336 1014 q 958 872 810 1014 q 1106 501 1106 729 q 957 131 1106 274 q 568 -12 808 -12 q 190 126 336 -12 q 44 489 44 265 m 569 928 q 335 817 415 928 q 254 496 254 707 q 338 179 254 290 q 574 68 421 68 q 810 176 726 68 q 893 485 893 285 q 861 727 893 636 q 757 869 829 818 q 569 928 672 928 m 344 1143 q 368 1199 357 1182 q 401 1233 379 1215 q 444 1258 424 1250 q 489 1267 465 1267 q 538 1258 511 1267 q 626 1222 564 1250 q 685 1207 665 1207 q 756 1261 731 1207 q 806 1239 776 1243 l 786 1189 q 733 1133 769 1158 q 665 1108 696 1108 q 590 1126 636 1108 l 510 1160 q 454 1169 482 1169 q 394 1125 408 1169 q 368 1138 378 1133 q 344 1143 358 1142 z "},"Ö":{"ha":1150,"x_min":44,"x_max":1106,"o":"m 131 1024 q 154 1083 131 1058 q 214 1108 178 1108 q 272 1084 247 1108 q 296 1024 296 1060 q 272 966 296 990 q 214 942 247 942 q 154 965 178 942 q 131 1024 131 989 m 856 1024 q 879 1083 856 1058 q 939 1108 903 1108 q 997 1084 972 1108 q 1021 1024 1021 1060 q 997 966 1021 990 q 939 942 972 942 q 879 965 903 942 q 856 1024 856 989 m 44 489 q 190 869 44 725 q 574 1014 336 1014 q 958 872 810 1014 q 1106 501 1106 729 q 957 131 1106 274 q 568 -12 808 -12 q 190 126 336 -12 q 44 489 44 265 m 569 928 q 335 817 415 928 q 254 496 254 707 q 338 179 254 290 q 574 68 421 68 q 810 176 726 68 q 893 485 893 285 q 861 727 893 636 q 757 869 829 818 q 569 928 672 928 z "},"Ø":{"ha":1147,"x_min":42,"x_max":1106,"o":"m 919 900 l 1042 1015 q 1106 950 1067 975 l 986 836 q 1075 683 1050 758 q 1100 500 1100 608 q 952 130 1100 272 q 567 -12 804 -12 q 376 12 453 -12 q 215 100 300 36 l 106 -3 q 43 64 83 39 l 150 169 q 65 319 89 250 q 42 494 42 389 q 188 869 42 726 q 569 1013 333 1013 q 756 988 678 1013 q 919 900 833 963 m 858 718 l 319 203 q 340 174 333 182 q 358 156 347 165 q 590 79 456 79 q 807 189 731 79 q 883 500 883 299 q 881 563 883 540 q 874 625 879 585 q 867 677 869 665 q 858 718 865 689 m 282 294 l 817 804 q 703 898 763 869 q 567 926 644 926 q 338 817 418 926 q 257 500 257 707 q 282 294 257 394 z "},"Ù":{"ha":994,"x_min":71,"x_max":929,"o":"m 71 1001 q 131 997 96 999 q 183 996 165 996 q 244 998 207 996 q 293 1000 282 1000 q 285 815 293 910 q 278 699 278 721 l 278 626 l 278 451 q 278 355 278 403 q 289 267 279 307 q 375 143 306 190 q 539 96 444 96 q 703 143 636 96 q 797 278 771 190 q 819 485 819 350 l 819 629 l 819 678 l 819 699 q 815 826 819 724 q 810 1000 810 928 l 867 997 l 882 997 q 929 1001 897 997 q 926 871 929 924 q 918 699 918 713 l 918 656 l 918 633 l 918 525 l 918 383 q 799 100 918 214 q 499 -14 679 -14 q 203 89 328 -14 q 79 333 79 192 l 81 521 l 81 626 l 81 699 q 76 819 81 714 q 71 1001 71 924 m 268 1313 q 331 1310 290 1310 q 364 1308 347 1308 l 389 1308 q 468 1313 414 1308 l 539 1217 l 622 1110 l 567 1113 l 529 1111 q 477 1167 496 1149 q 428 1211 458 1186 q 358 1262 388 1243 q 268 1313 329 1281 z "},"Ú":{"ha":994,"x_min":71,"x_max":929,"o":"m 71 1001 q 131 997 96 999 q 183 996 165 996 q 244 998 207 996 q 293 1000 282 1000 q 285 815 293 910 q 278 699 278 721 l 278 626 l 278 451 q 278 355 278 403 q 289 267 279 307 q 375 143 306 190 q 539 96 444 96 q 703 143 636 96 q 797 278 771 190 q 819 485 819 350 l 819 629 l 819 678 l 819 699 q 815 826 819 724 q 810 1000 810 928 l 867 997 l 882 997 q 929 1001 897 997 q 926 871 929 924 q 918 699 918 713 l 918 656 l 918 633 l 918 525 l 918 383 q 799 100 918 214 q 499 -14 679 -14 q 203 89 328 -14 q 79 333 79 192 l 81 521 l 81 626 l 81 699 q 76 819 81 714 q 71 1001 71 924 m 401 1108 l 486 1214 l 558 1310 l 660 1306 l 753 1310 q 663 1254 696 1276 q 594 1203 629 1232 q 549 1165 568 1183 q 493 1107 529 1146 q 467 1110 482 1110 q 446 1111 453 1110 l 401 1108 z "},"Û":{"ha":994,"x_min":71,"x_max":929,"o":"m 71 1001 q 131 997 96 999 q 183 996 165 996 q 244 998 207 996 q 293 1000 282 1000 q 285 815 293 910 q 278 699 278 721 l 278 626 l 278 451 q 278 355 278 403 q 289 267 279 307 q 375 143 306 190 q 539 96 444 96 q 703 143 636 96 q 797 278 771 190 q 819 485 819 350 l 819 629 l 819 678 l 819 699 q 815 826 819 724 q 810 1000 810 928 l 867 997 l 882 997 q 929 1001 897 997 q 926 871 929 924 q 918 699 918 713 l 918 656 l 918 633 l 918 525 l 918 383 q 799 100 918 214 q 499 -14 679 -14 q 203 89 328 -14 q 79 333 79 192 l 81 521 l 81 626 l 81 699 q 76 819 81 714 q 71 1001 71 924 m 265 1151 q 324 1188 307 1176 q 374 1224 342 1200 q 469 1311 415 1257 l 593 1310 q 618 1267 606 1288 q 642 1233 621 1261 q 732 1139 678 1188 q 674 1128 699 1135 q 617 1108 649 1121 q 601 1143 607 1132 q 576 1186 592 1165 q 556 1213 569 1197 q 525 1246 542 1228 q 482 1213 500 1228 q 449 1183 464 1197 q 375 1107 413 1150 q 352 1120 357 1118 q 324 1131 347 1122 q 302 1141 308 1139 q 265 1151 296 1143 z "},"Ü":{"ha":994,"x_min":71,"x_max":929,"o":"m 353 994 q 377 1052 353 1029 q 436 1075 401 1075 q 493 1051 468 1075 q 518 994 518 1028 q 494 935 518 960 q 436 910 471 910 q 377 934 401 910 q 353 994 353 958 m 581 994 q 604 1051 581 1028 q 664 1075 628 1075 q 721 1051 696 1075 q 746 994 746 1028 q 722 935 746 960 q 664 910 699 910 q 604 933 628 910 q 581 994 581 957 m 71 1001 q 131 997 96 999 q 183 996 165 996 q 244 998 207 996 q 293 1000 282 1000 q 285 815 293 910 q 278 699 278 721 l 278 626 l 278 451 q 278 355 278 403 q 289 267 279 307 q 375 143 306 190 q 539 96 444 96 q 703 143 636 96 q 797 278 771 190 q 819 485 819 350 l 819 629 l 819 678 l 819 699 q 815 826 819 724 q 810 1000 810 928 l 867 997 l 882 997 q 929 1001 897 997 q 926 871 929 924 q 918 699 918 713 l 918 656 l 918 633 l 918 525 l 918 383 q 799 100 918 214 q 499 -14 679 -14 q 203 89 328 -14 q 79 333 79 192 l 81 521 l 81 626 l 81 699 q 76 819 81 714 q 71 1001 71 924 z "},"ß":{"ha":871,"x_min":75,"x_max":849,"o":"m 75 0 q 79 143 75 79 q 90 322 90 314 l 92 429 l 92 463 l 90 614 l 88 747 l 86 763 q 183 1018 86 922 q 442 1114 281 1114 q 656 1054 571 1114 q 740 904 740 994 q 719 822 740 860 q 644 733 699 785 l 589 679 q 550 610 550 640 q 615 526 550 569 l 722 460 q 849 253 849 381 q 767 61 849 135 q 553 -12 685 -12 q 356 36 453 -12 q 365 67 363 57 q 374 108 368 76 q 383 152 381 140 q 385 193 385 164 l 396 200 q 474 117 428 147 q 574 86 521 86 q 653 115 621 86 q 685 192 685 144 q 661 259 685 229 q 576 331 638 289 q 413 456 453 413 q 372 554 372 500 q 389 619 372 589 q 449 686 406 649 l 515 747 q 574 881 574 810 q 535 982 574 942 q 436 1022 496 1022 q 349 994 388 1022 q 294 918 311 967 q 276 796 276 872 l 276 465 l 278 322 q 283 179 278 276 q 289 0 289 82 q 233 6 256 4 q 183 7 211 7 q 138 6 160 7 q 75 0 117 4 z "},"à":{"ha":731,"x_min":44,"x_max":740,"o":"m 150 564 l 138 564 q 126 617 131 601 q 108 663 121 633 q 243 746 179 721 q 386 771 307 771 q 572 717 507 771 q 638 561 638 663 l 636 447 l 636 206 q 643 129 636 147 q 701 82 651 82 q 738 93 715 82 l 738 75 l 740 31 q 604 -12 672 -12 q 522 8 553 -12 q 469 78 492 29 q 458 65 468 76 q 440 47 447 53 q 265 -14 368 -14 q 105 45 165 -14 q 44 203 44 104 q 94 349 44 292 q 169 403 125 382 q 311 449 214 424 l 363 463 q 451 544 451 486 q 417 635 451 599 q 328 671 382 671 q 150 564 228 671 m 451 240 l 451 422 q 357 385 407 400 q 285 356 307 371 q 251 313 263 340 q 235 235 235 276 q 335 96 235 96 q 399 115 368 96 q 440 163 429 135 q 451 240 451 190 m 136 1019 q 199 1017 158 1017 q 232 1015 215 1015 l 257 1015 q 336 1019 282 1015 l 407 924 l 490 817 l 435 819 l 397 818 q 345 874 364 856 q 296 918 326 893 q 226 969 256 950 q 136 1019 197 988 z "},"á":{"ha":731,"x_min":44,"x_max":740,"o":"m 150 564 l 138 564 q 126 617 131 601 q 108 663 121 633 q 243 746 179 721 q 386 771 307 771 q 572 717 507 771 q 638 561 638 663 l 636 447 l 636 206 q 643 129 636 147 q 701 82 651 82 q 738 93 715 82 l 738 75 l 740 31 q 604 -12 672 -12 q 522 8 553 -12 q 469 78 492 29 q 458 65 468 76 q 440 47 447 53 q 265 -14 368 -14 q 105 45 165 -14 q 44 203 44 104 q 94 349 44 292 q 169 403 125 382 q 311 449 214 424 l 363 463 q 451 544 451 486 q 417 635 451 599 q 328 671 382 671 q 150 564 228 671 m 451 240 l 451 422 q 357 385 407 400 q 285 356 307 371 q 251 313 263 340 q 235 235 235 276 q 335 96 235 96 q 399 115 368 96 q 440 163 429 135 q 451 240 451 190 m 269 815 l 354 921 l 426 1017 l 528 1013 l 621 1017 q 531 961 564 983 q 463 910 497 939 q 417 872 436 890 q 361 814 397 853 q 335 817 350 817 q 314 818 321 817 l 269 815 z "},"â":{"ha":731,"x_min":44,"x_max":740,"o":"m 150 564 l 138 564 q 126 617 131 601 q 108 663 121 633 q 243 746 179 721 q 386 771 307 771 q 572 717 507 771 q 638 561 638 663 l 636 447 l 636 206 q 643 129 636 147 q 701 82 651 82 q 738 93 715 82 l 738 75 l 740 31 q 604 -12 672 -12 q 522 8 553 -12 q 469 78 492 29 q 458 65 468 76 q 440 47 447 53 q 265 -14 368 -14 q 105 45 165 -14 q 44 203 44 104 q 94 349 44 292 q 169 403 125 382 q 311 449 214 424 l 363 463 q 451 544 451 486 q 417 635 451 599 q 328 671 382 671 q 150 564 228 671 m 451 240 l 451 422 q 357 385 407 400 q 285 356 307 371 q 251 313 263 340 q 235 235 235 276 q 335 96 235 96 q 399 115 368 96 q 440 163 429 135 q 451 240 451 190 m 133 858 q 192 895 175 883 q 242 931 210 907 q 338 1018 283 964 l 461 1017 q 486 974 474 994 q 510 940 489 968 q 600 846 546 894 q 542 835 567 842 q 485 815 517 828 q 469 850 475 839 q 444 893 460 872 q 424 919 438 904 q 393 953 410 935 q 350 919 368 935 q 317 890 332 904 q 243 814 281 857 q 220 827 225 825 q 192 838 215 829 q 170 848 176 846 q 133 858 164 850 z "},"ã":{"ha":731,"x_min":44,"x_max":740,"o":"m 150 564 l 138 564 q 126 617 131 601 q 108 663 121 633 q 243 746 179 721 q 386 771 307 771 q 572 717 507 771 q 638 561 638 663 l 636 447 l 636 206 q 643 129 636 147 q 701 82 651 82 q 738 93 715 82 l 738 75 l 740 31 q 604 -12 672 -12 q 522 8 553 -12 q 469 78 492 29 q 458 65 468 76 q 440 47 447 53 q 265 -14 368 -14 q 105 45 165 -14 q 44 203 44 104 q 94 349 44 292 q 169 403 125 382 q 311 449 214 424 l 363 463 q 451 544 451 486 q 417 635 451 599 q 328 671 382 671 q 150 564 228 671 m 451 240 l 451 422 q 357 385 407 400 q 285 356 307 371 q 251 313 263 340 q 235 235 235 276 q 335 96 235 96 q 399 115 368 96 q 440 163 429 135 q 451 240 451 190 m 135 850 q 158 906 147 889 q 192 940 169 922 q 235 965 214 957 q 279 974 256 974 q 328 965 301 974 q 417 929 354 957 q 475 914 456 914 q 546 968 521 914 q 596 946 567 950 l 576 896 q 523 840 560 865 q 456 815 486 815 q 381 833 426 815 l 300 867 q 244 876 272 876 q 185 832 199 876 q 158 844 168 840 q 135 850 149 849 z "},"ä":{"ha":731,"x_min":44,"x_max":740,"o":"m 136 908 q 163 977 136 949 q 231 1006 190 1006 q 300 978 272 1006 q 328 908 328 950 q 300 840 328 868 q 231 813 272 813 q 164 840 192 813 q 136 908 136 868 m 429 908 q 457 978 429 950 q 526 1006 485 1006 q 594 978 567 1006 q 622 908 622 950 q 594 840 622 868 q 526 813 567 813 q 458 840 488 813 q 429 908 429 868 m 150 564 l 138 564 q 126 617 131 601 q 108 663 121 633 q 243 746 179 721 q 386 771 307 771 q 572 717 507 771 q 638 561 638 663 l 636 447 l 636 206 q 643 129 636 147 q 701 82 651 82 q 738 93 715 82 l 738 75 l 740 31 q 604 -12 672 -12 q 522 8 553 -12 q 469 78 492 29 q 458 65 468 76 q 440 47 447 53 q 265 -14 368 -14 q 105 45 165 -14 q 44 203 44 104 q 94 349 44 292 q 169 403 125 382 q 311 449 214 424 l 363 463 q 451 544 451 486 q 417 635 451 599 q 328 671 382 671 q 150 564 228 671 m 451 240 l 451 422 q 357 385 407 400 q 285 356 307 371 q 251 313 263 340 q 235 235 235 276 q 335 96 235 96 q 399 115 368 96 q 440 163 429 135 q 451 240 451 190 z "},"å":{"ha":731,"x_min":44,"x_max":740,"o":"m 150 564 l 138 564 q 126 617 131 601 q 108 663 121 633 q 243 746 179 721 q 386 771 307 771 q 572 717 507 771 q 638 561 638 663 l 636 447 l 636 206 q 643 129 636 147 q 701 82 651 82 q 738 93 715 82 l 738 75 l 740 31 q 604 -12 672 -12 q 522 8 553 -12 q 469 78 492 29 q 458 65 468 76 q 440 47 447 53 q 265 -14 368 -14 q 105 45 165 -14 q 44 203 44 104 q 94 349 44 292 q 169 403 125 382 q 311 449 214 424 l 363 463 q 451 544 451 486 q 417 635 451 599 q 328 671 382 671 q 150 564 228 671 m 265 931 q 303 1022 265 983 q 393 1061 340 1061 q 485 1023 449 1061 q 522 929 522 985 q 485 840 522 878 q 393 803 447 803 q 303 840 340 803 q 265 931 265 878 m 451 240 l 451 422 q 357 385 407 400 q 285 356 307 371 q 251 313 263 340 q 235 235 235 276 q 335 96 235 96 q 399 115 368 96 q 440 163 429 135 q 451 240 451 190 m 393 1001 q 346 981 365 1001 q 326 931 326 960 q 346 882 326 901 q 394 863 365 863 q 443 882 422 863 q 464 931 464 901 q 443 981 464 960 q 393 1001 422 1001 z "},"æ":{"ha":1178,"x_min":44,"x_max":1138,"o":"m 150 567 l 138 568 q 129 604 131 600 q 108 664 122 629 q 241 746 176 719 q 376 772 306 772 q 560 715 492 772 l 588 683 q 695 751 643 731 q 814 771 747 771 q 1043 672 949 771 q 1138 432 1138 574 l 1132 357 q 1007 359 1056 357 q 892 365 958 361 q 810 364 836 365 q 651 357 679 357 q 708 156 651 225 q 874 86 765 86 q 989 112 932 86 q 1114 193 1046 138 l 1126 188 l 1100 115 l 1086 57 q 1057 40 1071 47 q 1032 26 1043 32 q 833 -15 944 -15 q 656 18 725 -15 q 525 135 588 51 q 265 -14 415 -14 q 105 48 165 -14 q 44 210 44 110 q 74 319 44 271 q 154 390 103 367 q 358 453 239 428 q 434 484 415 465 q 453 549 453 503 q 418 638 453 603 q 326 672 383 672 q 150 567 215 672 m 814 689 q 697 624 742 689 q 651 450 651 560 l 758 449 l 878 450 l 949 453 l 950 474 q 913 631 950 572 q 814 689 875 689 m 450 240 l 450 414 q 433 403 442 406 l 401 388 l 357 369 q 272 326 290 342 q 244 272 253 310 q 240 251 242 261 q 239 226 239 240 q 339 97 239 97 q 450 240 450 97 z "},"ç":{"ha":707,"x_min":47,"x_max":708,"o":"m 708 679 l 668 592 l 638 508 l 624 507 q 565 640 611 593 q 447 688 519 688 q 304 606 360 688 q 249 393 249 525 q 317 171 249 256 q 494 86 385 86 q 671 167 590 86 l 686 156 q 669 101 676 126 q 656 42 661 75 q 444 -12 565 -12 l 386 -8 l 378 -42 q 432 -35 411 -35 q 539 -68 499 -35 q 579 -156 579 -101 q 523 -252 579 -211 q 390 -293 467 -293 q 347 -292 365 -293 q 290 -283 328 -290 l 292 -265 q 286 -225 292 -249 q 342 -244 315 -237 q 393 -251 368 -251 q 465 -226 436 -251 q 494 -162 494 -201 q 403 -81 494 -81 q 329 -107 361 -81 q 301 -96 315 -100 l 332 -35 l 347 -1 q 208 54 256 21 q 90 194 132 108 q 47 381 47 279 q 158 662 47 553 q 444 771 268 771 q 588 751 529 771 q 708 679 646 731 z "},"è":{"ha":778,"x_min":47,"x_max":733,"o":"m 728 357 q 588 360 663 357 q 476 363 513 363 q 357 360 438 363 q 249 357 276 357 l 249 344 q 308 156 249 226 q 467 85 368 85 q 600 114 533 85 q 651 142 632 128 q 706 188 671 156 l 718 175 q 705 141 708 150 q 692 97 701 132 l 682 54 q 570 0 624 15 q 439 -15 517 -15 q 151 89 256 -15 q 47 376 47 193 q 146 663 47 554 q 410 771 244 771 q 646 678 558 771 q 733 426 733 585 q 733 399 733 411 q 728 357 732 386 m 407 689 q 290 624 335 689 q 246 449 246 558 l 350 447 l 474 449 l 547 451 l 547 460 q 510 627 547 565 q 407 689 472 689 m 160 1019 q 222 1017 182 1017 q 256 1015 239 1015 l 281 1015 q 360 1019 306 1015 l 431 924 l 514 817 l 458 819 l 421 818 q 369 874 388 856 q 319 918 350 893 q 250 969 279 950 q 160 1019 221 988 z "},"é":{"ha":778,"x_min":47,"x_max":733,"o":"m 728 357 q 588 360 663 357 q 476 363 513 363 q 357 360 438 363 q 249 357 276 357 l 249 344 q 308 156 249 226 q 467 85 368 85 q 600 114 533 85 q 651 142 632 128 q 706 188 671 156 l 718 175 q 705 141 708 150 q 692 97 701 132 l 682 54 q 570 0 624 15 q 439 -15 517 -15 q 151 89 256 -15 q 47 376 47 193 q 146 663 47 554 q 410 771 244 771 q 646 678 558 771 q 733 426 733 585 q 733 399 733 411 q 728 357 732 386 m 407 689 q 290 624 335 689 q 246 449 246 558 l 350 447 l 474 449 l 547 451 l 547 460 q 510 627 547 565 q 407 689 472 689 m 293 815 l 378 921 l 450 1017 l 551 1013 l 644 1017 q 554 961 588 983 q 486 910 521 939 q 440 872 460 890 q 385 814 421 853 q 359 817 374 817 q 338 818 344 817 l 293 815 z "},"ê":{"ha":778,"x_min":47,"x_max":733,"o":"m 728 357 q 588 360 663 357 q 476 363 513 363 q 357 360 438 363 q 249 357 276 357 l 249 344 q 308 156 249 226 q 467 85 368 85 q 600 114 533 85 q 651 142 632 128 q 706 188 671 156 l 718 175 q 705 141 708 150 q 692 97 701 132 l 682 54 q 570 0 624 15 q 439 -15 517 -15 q 151 89 256 -15 q 47 376 47 193 q 146 663 47 554 q 410 771 244 771 q 646 678 558 771 q 733 426 733 585 q 733 399 733 411 q 728 357 732 386 m 407 689 q 290 624 335 689 q 246 449 246 558 l 350 447 l 474 449 l 547 451 l 547 460 q 510 627 547 565 q 407 689 472 689 m 157 858 q 216 895 199 883 q 265 931 233 907 q 361 1018 307 964 l 485 1017 q 510 974 497 994 q 533 940 513 968 q 624 846 569 894 q 565 835 590 842 q 508 815 540 828 q 493 850 499 839 q 468 893 483 872 q 447 919 461 904 q 417 953 433 935 q 374 919 392 935 q 340 890 356 904 q 267 814 304 857 q 244 827 249 825 q 215 838 239 829 q 194 848 200 846 q 157 858 188 850 z "},"ë":{"ha":778,"x_min":47,"x_max":733,"o":"m 728 357 q 588 360 663 357 q 476 363 513 363 q 357 360 438 363 q 249 357 276 357 l 249 344 q 308 156 249 226 q 467 85 368 85 q 600 114 533 85 q 651 142 632 128 q 706 188 671 156 l 718 175 q 705 141 708 150 q 692 97 701 132 l 682 54 q 570 0 624 15 q 439 -15 517 -15 q 151 89 256 -15 q 47 376 47 193 q 146 663 47 554 q 410 771 244 771 q 646 678 558 771 q 733 426 733 585 q 733 399 733 411 q 728 357 732 386 m 407 689 q 290 624 335 689 q 246 449 246 558 l 350 447 l 474 449 l 547 451 l 547 460 q 510 627 547 565 q 407 689 472 689 m 156 911 q 183 981 156 953 q 251 1008 211 1008 q 320 980 292 1008 q 349 911 349 951 q 321 843 349 871 q 251 815 293 815 q 183 843 211 815 q 156 911 156 871 m 429 911 q 457 981 429 953 q 525 1008 485 1008 q 593 981 565 1008 q 621 911 621 953 q 593 843 621 871 q 525 815 565 815 q 457 843 485 815 q 429 911 429 871 z "},"ì":{"ha":344,"x_min":-56,"x_max":299,"o":"m 67 0 q 73 210 67 97 q 79 360 79 322 l 79 436 q 74 578 79 482 q 68 754 68 674 q 174 747 129 747 q 278 754 215 747 q 274 585 278 661 q 265 414 269 510 l 265 321 q 272 139 265 292 q 275 0 275 78 q 217 1 240 0 q 169 4 193 3 q 113 4 140 4 q 67 0 85 1 m -56 1019 q 7 1017 -33 1017 q 40 1015 24 1015 l 65 1015 q 144 1019 90 1015 l 215 924 l 299 817 l 243 819 l 206 818 q 153 874 172 856 q 104 918 135 893 q 35 969 64 950 q -56 1019 6 988 z "},"í":{"ha":344,"x_min":67,"x_max":428,"o":"m 67 0 q 73 210 67 97 q 79 360 79 322 l 79 436 q 74 578 79 482 q 68 754 68 674 q 174 747 129 747 q 278 754 215 747 q 274 585 278 661 q 265 414 269 510 l 265 321 q 272 139 265 292 q 275 0 275 78 q 217 1 240 0 q 169 4 193 3 q 113 4 140 4 q 67 0 85 1 m 76 815 l 161 921 l 233 1017 l 335 1013 l 428 1017 q 338 961 371 983 q 269 910 304 939 q 224 872 243 890 q 168 814 204 853 q 142 817 157 817 q 121 818 128 817 l 76 815 z "},"î":{"ha":344,"x_min":-58,"x_max":408,"o":"m 67 0 q 73 210 67 97 q 79 360 79 322 l 79 436 q 74 578 79 482 q 68 754 68 674 q 174 747 129 747 q 278 754 215 747 q 274 585 278 661 q 265 414 269 510 l 265 321 q 272 139 265 292 q 275 0 275 78 q 217 1 240 0 q 169 4 193 3 q 113 4 140 4 q 67 0 85 1 m -58 858 q 1 895 -17 883 q 50 931 18 907 q 146 1018 92 964 l 269 1017 q 294 974 282 994 q 318 940 297 968 q 408 846 354 894 q 350 835 375 842 q 293 815 325 828 q 278 850 283 839 q 253 893 268 872 q 232 919 246 904 q 201 953 218 935 q 158 919 176 935 q 125 890 140 904 q 51 814 89 857 q 28 827 33 825 q 0 838 24 829 q -22 848 -15 846 q -58 858 -28 850 z "},"ï":{"ha":344,"x_min":-60,"x_max":406,"o":"m 67 0 q 73 210 67 97 q 79 360 79 322 l 79 436 q 74 578 79 482 q 68 754 68 674 q 174 747 129 747 q 278 754 215 747 q 274 585 278 661 q 265 414 269 510 l 265 321 q 272 139 265 292 q 275 0 275 78 q 217 1 240 0 q 169 4 193 3 q 113 4 140 4 q 67 0 85 1 m -60 911 q -32 981 -60 953 q 36 1008 -4 1008 q 105 980 76 1008 q 133 911 133 951 q 106 843 133 871 q 36 815 78 815 q -32 843 -4 815 q -60 911 -60 871 m 214 911 q 242 981 214 953 q 310 1008 269 1008 q 378 981 350 1008 q 406 911 406 953 q 378 843 406 871 q 310 815 350 815 q 242 843 269 815 q 214 911 214 871 z "},"ñ":{"ha":847,"x_min":75,"x_max":772,"o":"m 75 0 q 79 156 75 86 q 90 363 90 342 l 90 436 q 88 543 90 497 q 78 753 78 703 q 135 749 104 750 q 185 747 165 747 l 208 747 q 240 747 224 747 q 283 753 267 751 q 278 699 281 729 q 275 646 275 668 q 304 683 290 668 q 335 711 318 697 q 508 771 411 771 q 693 701 624 771 q 763 517 763 632 l 761 442 l 761 376 l 761 371 l 761 319 q 767 171 761 264 q 772 0 772 78 l 665 4 l 558 0 q 563 150 558 82 q 574 340 574 332 l 574 406 l 574 488 q 556 592 574 560 q 440 651 524 651 q 321 594 367 651 q 275 443 275 538 l 275 381 l 275 321 q 281 182 275 279 q 286 0 286 85 l 179 4 l 75 0 m 193 850 q 217 906 206 889 q 250 940 228 922 q 293 965 272 957 q 338 974 314 974 q 386 965 360 974 q 475 929 413 957 q 533 914 514 914 q 604 968 579 914 q 654 946 625 950 l 635 896 q 581 840 618 865 q 514 815 544 815 q 439 833 485 815 l 358 867 q 303 876 331 876 q 243 832 257 876 q 217 844 226 840 q 193 850 207 849 z "},"ò":{"ha":888,"x_min":47,"x_max":840,"o":"m 47 382 q 156 664 47 557 q 443 771 264 771 q 731 664 621 771 q 840 383 840 557 q 731 103 840 210 q 443 -4 621 -4 q 156 102 265 -4 q 47 382 47 208 m 443 685 q 247 376 247 685 q 297 147 247 225 q 444 69 347 69 q 589 148 538 69 q 640 368 640 226 q 443 685 640 685 m 215 1019 q 278 1017 238 1017 q 311 1015 294 1015 l 336 1015 q 415 1019 361 1015 l 486 924 l 569 817 l 514 819 l 476 818 q 424 874 443 856 q 375 918 406 893 q 306 969 335 950 q 215 1019 276 988 z "},"ó":{"ha":888,"x_min":47,"x_max":840,"o":"m 47 382 q 156 664 47 557 q 443 771 264 771 q 731 664 621 771 q 840 383 840 557 q 731 103 840 210 q 443 -4 621 -4 q 156 102 265 -4 q 47 382 47 208 m 443 685 q 247 376 247 685 q 297 147 247 225 q 444 69 347 69 q 589 148 538 69 q 640 368 640 226 q 443 685 640 685 m 347 815 l 432 921 l 504 1017 l 606 1013 l 699 1017 q 608 961 642 983 q 540 910 575 939 q 494 872 514 890 q 439 814 475 853 q 413 817 428 817 q 392 818 399 817 l 347 815 z "},"ô":{"ha":888,"x_min":47,"x_max":840,"o":"m 47 382 q 156 664 47 557 q 443 771 264 771 q 731 664 621 771 q 840 383 840 557 q 731 103 840 210 q 443 -4 621 -4 q 156 102 265 -4 q 47 382 47 208 m 443 685 q 247 376 247 685 q 297 147 247 225 q 444 69 347 69 q 589 148 538 69 q 640 368 640 226 q 443 685 640 685 m 213 858 q 272 895 254 883 q 321 931 289 907 q 417 1018 363 964 l 540 1017 q 565 974 553 994 q 589 940 568 968 q 679 846 625 894 q 621 835 646 842 q 564 815 596 828 q 549 850 554 839 q 524 893 539 872 q 503 919 517 904 q 472 953 489 935 q 429 919 447 935 q 396 890 411 904 q 322 814 360 857 q 299 827 304 825 q 271 838 294 829 q 249 848 256 846 q 213 858 243 850 z "},"õ":{"ha":888,"x_min":47,"x_max":840,"o":"m 47 382 q 156 664 47 557 q 443 771 264 771 q 731 664 621 771 q 840 383 840 557 q 731 103 840 210 q 443 -4 621 -4 q 156 102 265 -4 q 47 382 47 208 m 443 685 q 247 376 247 685 q 297 147 247 225 q 444 69 347 69 q 589 148 538 69 q 640 368 640 226 q 443 685 640 685 m 213 850 q 236 906 225 889 q 269 940 247 922 q 313 965 292 957 q 357 974 333 974 q 406 965 379 974 q 494 929 432 957 q 553 914 533 914 q 624 968 599 914 q 674 946 644 950 l 654 896 q 601 840 638 865 q 533 815 564 815 q 458 833 504 815 l 378 867 q 322 876 350 876 q 263 832 276 876 q 236 844 246 840 q 213 850 226 849 z "},"ö":{"ha":888,"x_min":47,"x_max":840,"o":"m 47 378 q 156 663 47 556 q 443 771 265 771 q 731 663 622 771 q 840 378 840 556 q 731 95 840 203 q 443 -12 622 -12 q 156 94 264 -12 q 47 378 47 201 m 201 908 q 228 976 201 949 q 296 1004 254 1004 q 365 977 336 1004 q 393 908 393 950 q 365 840 393 868 q 296 813 338 813 q 229 840 257 813 q 201 908 201 868 m 494 908 q 522 976 494 949 q 592 1004 550 1004 q 659 977 632 1004 q 686 910 686 950 q 660 840 686 868 q 592 813 633 813 q 522 840 550 813 q 494 908 494 868 m 247 378 q 297 150 247 228 q 443 72 347 72 q 640 388 640 72 q 590 608 640 531 q 444 685 539 685 q 298 606 349 685 q 247 378 247 528 z "},"÷":{"ha":825,"x_min":60,"x_max":703,"o":"m 325 196 q 382 219 351 219 q 438 197 415 219 q 460 140 460 175 q 436 85 460 107 q 382 61 415 61 q 326 85 349 61 q 303 140 303 110 q 325 196 303 174 m 703 375 l 703 281 l 60 281 l 60 375 l 703 375 m 325 569 q 382 593 351 593 q 436 569 415 593 q 460 514 460 546 q 436 458 460 481 q 382 435 415 435 q 326 458 349 435 q 303 514 303 481 q 325 569 303 547 z "},"ø":{"ha":892,"x_min":47,"x_max":846,"o":"m 703 690 l 796 778 q 817 746 807 757 q 846 722 826 735 l 756 638 q 821 519 801 578 q 840 376 840 460 q 731 95 840 203 q 444 -12 622 -12 q 305 7 363 -12 q 182 75 247 26 l 99 -3 q 78 28 89 17 q 49 54 68 40 l 124 131 q 47 383 47 242 q 156 663 47 556 q 442 771 265 771 q 574 753 517 771 q 703 690 632 735 m 625 511 l 289 181 q 313 136 301 147 q 446 81 365 81 q 586 158 538 81 q 635 381 635 236 q 625 511 635 435 m 264 267 l 599 590 q 446 683 547 683 q 304 607 353 683 q 256 386 256 531 q 257 329 256 353 q 264 267 258 306 z "},"ù":{"ha":822,"x_min":72,"x_max":747,"o":"m 72 754 q 126 749 106 750 q 175 747 146 747 q 282 754 221 747 q 276 560 282 660 q 269 433 269 460 l 269 381 l 269 256 q 299 140 269 175 q 397 106 328 106 q 550 293 550 106 l 550 388 l 550 436 q 547 539 550 493 q 538 754 538 697 q 593 749 571 750 q 643 747 615 747 q 747 754 686 747 l 739 593 l 735 374 l 735 321 q 738 214 735 260 q 747 0 747 53 q 694 4 717 3 q 647 6 671 6 q 547 0 608 6 q 551 53 550 31 q 553 104 553 76 q 319 -14 457 -14 q 148 51 215 -14 q 81 214 81 115 l 82 329 l 82 396 l 82 436 q 77 565 82 456 q 72 754 72 674 m 182 1019 q 244 1017 204 1017 q 278 1015 261 1015 l 303 1015 q 382 1019 328 1015 l 453 924 l 536 817 l 481 819 l 443 818 q 391 874 410 856 q 342 918 372 893 q 272 969 301 950 q 182 1019 243 988 z "},"ú":{"ha":822,"x_min":72,"x_max":747,"o":"m 72 754 q 126 749 106 750 q 175 747 146 747 q 282 754 221 747 q 276 560 282 660 q 269 433 269 460 l 269 381 l 269 256 q 299 140 269 175 q 397 106 328 106 q 550 293 550 106 l 550 388 l 550 436 q 547 539 550 493 q 538 754 538 697 q 593 749 571 750 q 643 747 615 747 q 747 754 686 747 l 739 593 l 735 374 l 735 321 q 738 214 735 260 q 747 0 747 53 q 694 4 717 3 q 647 6 671 6 q 547 0 608 6 q 551 53 550 31 q 553 104 553 76 q 319 -14 457 -14 q 148 51 215 -14 q 81 214 81 115 l 82 329 l 82 396 l 82 436 q 77 565 82 456 q 72 754 72 674 m 315 815 l 400 921 l 472 1017 l 574 1013 l 667 1017 q 576 961 610 983 q 508 910 543 939 q 463 872 482 890 q 407 814 443 853 q 381 817 396 817 q 360 818 367 817 l 315 815 z "},"û":{"ha":822,"x_min":72,"x_max":747,"o":"m 72 754 q 126 749 106 750 q 175 747 146 747 q 282 754 221 747 q 276 560 282 660 q 269 433 269 460 l 269 381 l 269 256 q 299 140 269 175 q 397 106 328 106 q 550 293 550 106 l 550 388 l 550 436 q 547 539 550 493 q 538 754 538 697 q 593 749 571 750 q 643 747 615 747 q 747 754 686 747 l 739 593 l 735 374 l 735 321 q 738 214 735 260 q 747 0 747 53 q 694 4 717 3 q 647 6 671 6 q 547 0 608 6 q 551 53 550 31 q 553 104 553 76 q 319 -14 457 -14 q 148 51 215 -14 q 81 214 81 115 l 82 329 l 82 396 l 82 436 q 77 565 82 456 q 72 754 72 674 m 179 858 q 238 895 221 883 q 288 931 256 907 q 383 1018 329 964 l 507 1017 q 532 974 519 994 q 556 940 535 968 q 646 846 592 894 q 588 835 613 842 q 531 815 563 828 q 515 850 521 839 q 490 893 506 872 q 469 919 483 904 q 439 953 456 935 q 396 919 414 935 q 363 890 378 904 q 289 814 326 857 q 266 827 271 825 q 238 838 261 829 q 216 848 222 846 q 179 858 210 850 z "},"ü":{"ha":822,"x_min":72,"x_max":747,"o":"m 165 908 q 193 978 165 950 q 263 1006 221 1006 q 330 977 303 1006 q 357 908 357 949 q 331 840 357 868 q 263 813 304 813 q 194 840 222 813 q 165 908 165 867 m 464 908 q 490 978 464 950 q 557 1006 517 1006 q 626 978 599 1006 q 654 908 654 950 q 626 840 654 868 q 558 813 599 813 q 492 840 519 813 q 464 908 464 868 m 72 754 q 126 749 106 750 q 175 747 146 747 q 282 754 221 747 q 276 560 282 660 q 269 433 269 460 l 269 381 l 269 256 q 299 140 269 175 q 397 106 328 106 q 550 293 550 106 l 550 388 l 550 436 q 547 539 550 493 q 538 754 538 697 q 593 749 571 750 q 643 747 615 747 q 747 754 686 747 l 739 593 l 735 374 l 735 321 q 738 214 735 260 q 747 0 747 53 q 694 4 717 3 q 647 6 671 6 q 547 0 608 6 q 551 53 550 31 q 553 104 553 76 q 319 -14 457 -14 q 148 51 215 -14 q 81 214 81 115 l 82 329 l 82 396 l 82 436 q 77 565 82 456 q 72 754 72 674 z "},"ÿ":{"ha":683,"x_min":-39,"x_max":725,"o":"m -39 756 q 37 752 -3 756 q 85 749 76 749 q 146 751 104 749 q 204 754 188 754 q 275 535 247 617 q 317 421 296 478 l 389 242 q 429 339 408 290 q 461 422 442 368 q 581 756 513 556 q 623 750 604 751 q 654 749 642 749 q 685 751 664 749 q 725 754 706 754 q 640 576 675 650 q 567 413 615 521 q 447 140 499 263 q 363 -76 396 18 q 322 -191 343 -126 q 272 -346 300 -256 q 231 -342 256 -343 q 193 -340 206 -340 q 163 -341 176 -340 q 118 -346 150 -342 q 197 -206 167 -262 q 249 -92 226 -149 l 285 0 q 196 233 232 142 q 115 426 160 325 q 32 610 71 526 q -39 756 -11 697 m 108 911 q 136 981 108 953 q 204 1008 164 1008 q 273 980 244 1008 q 301 911 301 951 q 274 843 301 871 q 204 815 246 815 q 136 843 164 815 q 108 911 108 871 m 382 911 q 410 981 382 953 q 478 1008 438 1008 q 546 981 518 1008 q 574 911 574 953 q 546 843 574 871 q 478 815 518 815 q 410 843 438 815 q 382 911 382 871 z "},"˘":{"ha":469,"x_min":3,"x_max":469,"o":"m 3 960 l 131 999 q 167 902 142 931 q 242 874 192 874 q 319 901 294 874 q 356 999 344 929 l 469 971 q 411 871 440 907 q 258 811 358 811 q 197 817 225 811 q 95 860 135 832 q 3 960 56 889 z "},"˙":{"ha":406,"x_min":7,"x_max":356,"o":"m 7 1257 q 115 1206 69 1225 q 206 1174 160 1186 q 258 1162 222 1169 q 332 1147 294 1154 q 336 1102 332 1118 q 356 1064 340 1086 q 272 1075 318 1069 q 209 1083 226 1081 q 156 1089 192 1086 q 81 1096 86 1096 l 71 1128 q 45 1190 54 1171 q 7 1257 36 1210 z "},"ı":{"ha":344,"x_min":67,"x_max":278,"o":"m 67 0 q 73 210 67 97 q 79 360 79 322 l 79 436 q 74 578 79 482 q 68 754 68 674 q 174 747 129 747 q 278 754 215 747 q 274 585 278 661 q 265 414 269 510 l 265 321 q 272 139 265 292 q 275 0 275 78 q 217 1 240 0 q 169 4 193 3 q 113 4 140 4 q 67 0 85 1 z "},"˚":{"ha":318,"x_min":31,"x_max":286,"o":"m 31 931 q 68 1022 31 983 q 158 1061 106 1061 q 249 1023 213 1061 q 286 929 286 985 q 249 840 286 878 q 158 803 211 803 q 68 840 106 803 q 31 931 31 878 m 158 1001 q 110 981 129 1001 q 90 931 90 960 q 110 883 90 903 q 160 863 131 863 q 208 882 189 863 q 228 931 228 901 q 208 981 228 960 q 158 1001 189 1001 z "},"˛":{"ha":311,"x_min":43,"x_max":267,"o":"m 43 96 q 75 176 43 144 q 154 208 107 208 q 235 176 203 208 q 267 96 267 144 q 234 17 267 50 q 154 -15 201 -15 q 76 17 108 -15 q 43 96 43 50 z "},"ˇ":{"ha":467,"x_min":0,"x_max":467,"o":"m 0 976 q 30 984 25 982 q 58 996 35 986 q 79 1003 67 999 q 111 1019 92 1008 q 150 976 126 1001 q 183 943 165 960 q 208 921 196 932 q 260 881 228 904 q 288 912 274 894 q 312 942 303 929 q 328 967 321 954 q 351 1018 335 981 q 380 1007 367 1011 q 403 1000 393 1003 q 433 994 413 997 q 467 989 453 990 q 413 937 429 954 q 378 893 397 919 q 356 861 368 881 q 328 817 343 842 l 204 817 q 165 856 185 836 q 110 901 144 875 q 61 938 76 926 q 0 976 38 954 z "},"∕":{"ha":299,"x_min":-215,"x_max":517,"o":"m -215 0 l 419 1001 q 468 996 451 996 q 517 1001 488 996 l -117 0 q -144 3 -129 3 q -167 4 -158 3 q -215 0 -192 4 z "},"":{"ha":803,"x_min":75,"x_max":728,"o":"m 75 171 l 282 376 l 76 586 q 115 614 104 604 q 141 638 126 624 q 166 666 156 653 q 193 703 176 679 l 401 496 l 607 704 q 635 667 626 676 q 663 636 651 649 q 690 611 675 624 q 725 585 706 599 l 519 378 l 728 169 q 693 142 703 150 q 665 115 675 125 q 631 78 639 88 q 610 51 624 69 l 401 260 l 193 53 q 165 88 175 76 q 138 117 156 99 q 117 136 126 126 q 75 171 100 151 z "},"":{"ha":568,"x_min":-4,"x_max":401,"o":"m -4 858 q 109 897 58 878 q 196 931 160 915 q 289 975 244 951 q 401 1040 333 999 l 393 868 q 392 742 393 792 q 386 518 386 542 q 388 413 386 483 q 389 304 389 342 q 396 133 389 281 q 399 0 399 75 q 338 3 371 0 q 286 6 304 6 q 229 3 268 6 q 175 0 190 0 l 185 153 q 188 355 185 225 q 192 506 192 485 l 188 808 l 49 728 l 25 783 l -4 858 z "},"Ž":{"ha":856,"x_min":-21,"x_max":869,"o":"m -21 0 l 215 349 q 319 510 281 449 q 419 674 333 531 q 550 890 478 769 q 453 889 506 890 q 374 888 400 888 q 199 881 294 888 q 60 868 181 879 l 64 944 l 61 1000 q 253 998 158 1000 q 461 994 349 996 q 674 997 532 994 q 869 1000 817 1000 l 665 700 q 497 439 576 565 q 300 115 413 303 l 364 115 l 489 117 q 688 127 592 117 q 847 143 785 138 l 844 78 l 849 0 l 421 4 q 178 3 281 4 q -21 0 76 1 m 194 1269 q 224 1277 219 1275 q 253 1289 229 1279 q 274 1297 261 1292 q 306 1313 286 1301 q 344 1269 321 1294 q 378 1236 360 1253 q 403 1214 390 1225 q 454 1174 422 1197 q 483 1205 468 1188 q 506 1235 497 1222 q 522 1260 515 1247 q 546 1311 529 1274 q 574 1300 561 1304 q 597 1293 588 1296 q 627 1287 607 1290 q 661 1282 647 1283 q 608 1230 624 1247 q 572 1186 592 1213 q 550 1154 563 1174 q 522 1110 538 1135 l 399 1110 q 359 1149 379 1129 q 305 1194 339 1168 q 256 1231 271 1219 q 194 1269 232 1247 z "},"ž":{"ha":682,"x_min":7,"x_max":674,"o":"m 7 0 q 13 49 13 29 l 8 88 l 171 297 l 304 479 l 424 651 l 303 653 q 183 647 274 653 q 49 642 93 642 l 53 711 l 51 756 q 222 751 131 756 q 360 747 314 747 q 468 749 433 747 q 674 756 639 756 l 669 708 l 672 668 l 519 474 l 376 275 l 263 104 l 310 104 l 369 104 q 492 109 390 104 q 667 114 593 114 q 661 50 661 76 l 665 0 q 443 2 556 0 q 329 4 331 4 q 151 3 225 4 q 7 0 76 1 m 107 976 q 137 984 132 982 q 165 996 142 986 q 186 1003 174 999 q 218 1019 199 1008 q 257 976 233 1001 q 290 943 272 960 q 315 921 303 932 q 367 881 335 904 q 395 912 381 894 q 419 942 410 929 q 435 967 428 954 q 458 1018 442 981 q 487 1007 474 1011 q 510 1000 500 1003 q 540 994 519 997 q 574 989 560 990 q 520 937 536 954 q 485 893 504 919 q 463 861 475 881 q 435 817 450 842 l 311 817 q 272 856 292 836 q 217 901 251 875 q 168 938 183 926 q 107 976 144 954 z "},"Ē":{"ha":825,"x_min":63,"x_max":700,"o":"m 678 569 l 574 467 l 700 467 l 700 378 l 493 378 l 392 278 l 700 278 l 700 189 l 310 189 l 146 25 l 86 86 l 189 189 l 63 189 l 63 278 l 271 278 l 372 378 l 63 378 l 63 467 l 453 467 l 617 631 l 678 569 z "},"ē":{"ha":1071,"x_min":74,"x_max":915,"o":"m 597 200 q 508 331 547 243 q 409 201 463 244 q 290 158 356 158 q 136 231 199 158 q 74 414 74 304 q 131 601 74 529 q 276 672 188 672 q 391 631 342 672 q 482 500 440 590 q 578 629 525 586 q 700 672 632 672 q 851 599 788 672 q 915 417 915 525 q 859 230 915 301 q 714 158 803 158 q 597 200 650 158 m 357 285 q 458 454 399 326 q 376 551 422 518 q 271 583 331 583 q 154 535 200 583 q 108 410 108 486 q 149 287 108 335 q 256 239 190 239 q 357 285 311 239 m 629 542 q 532 376 583 492 q 613 279 564 314 q 719 247 661 247 q 837 296 792 247 q 882 421 882 344 q 840 545 882 499 q 729 592 799 592 q 629 542 678 592 z "},"Ĕ":{"ha":825,"x_min":60,"x_max":703,"o":"m 703 119 l 703 25 l 60 25 l 60 119 l 703 119 m 703 539 l 225 389 l 703 240 l 703 143 l 61 344 l 61 435 l 703 636 l 703 539 z "},"ĕ":{"ha":825,"x_min":60,"x_max":703,"o":"m 703 119 l 703 25 l 60 25 l 60 119 l 703 119 m 703 435 l 703 344 l 60 143 l 60 240 l 538 389 l 60 539 l 60 636 l 703 435 z "},"Ė":{"ha":742,"x_min":86,"x_max":606,"o":"m 435 496 q 497 399 474 467 q 506 438 503 418 q 510 481 510 457 l 514 604 q 492 779 514 722 q 426 836 471 836 q 357 788 401 836 q 279 739 313 739 q 244 749 257 739 q 228 783 231 760 q 268 853 228 824 q 369 882 313 882 q 542 782 476 882 q 589 664 572 732 q 606 510 606 596 q 516 133 606 283 q 297 -18 426 -18 q 144 53 203 -18 q 86 243 86 124 q 160 442 86 357 q 333 528 233 528 q 435 496 394 528 m 443 440 q 356 485 414 485 q 236 401 283 485 q 189 178 189 318 q 219 56 189 99 q 306 13 249 13 q 426 99 379 13 q 474 311 474 185 q 443 440 474 392 z "},"ė":{"ha":1071,"x_min":50,"x_max":918,"o":"m 822 1013 q 858 893 846 994 l 879 714 l 818 714 q 700 914 774 860 q 465 968 626 968 l 282 968 l 719 369 l 242 -178 l 501 -178 q 741 -134 671 -178 q 856 28 811 -90 l 918 28 l 876 -153 l 874 -162 q 719 -300 842 -300 l 50 -300 l 590 319 l 69 1033 l 708 1033 q 822 1013 799 1033 z "},"Ę":{"ha":1236,"x_min":42,"x_max":1107,"o":"m 42 -244 l 164 -244 l 164 978 l 42 978 l 42 1033 l 1107 1033 l 1107 978 l 985 978 l 985 -244 l 1107 -244 l 1107 -300 l 740 -300 l 740 -244 l 857 -244 l 857 978 l 292 978 l 292 -244 l 408 -244 l 408 -300 l 42 -300 l 42 -244 z "},"ę":{"ha":825,"x_min":24,"x_max":731,"o":"m 575 517 l 561 518 l 560 485 l 556 276 l 556 221 q 567 75 556 104 q 610 46 579 46 q 667 86 649 46 q 690 210 690 129 l 725 210 l 725 203 q 689 39 725 92 q 578 -14 653 -14 q 467 40 500 -14 q 435 269 435 97 l 436 378 l 440 522 l 371 524 l 264 526 q 232 94 264 201 q 121 -14 200 -14 q 48 26 72 -14 q 24 146 24 67 l 24 172 l 57 172 q 70 117 57 135 q 108 100 83 100 q 189 186 167 100 q 209 319 201 231 q 217 526 217 407 l 186 526 q 103 508 133 526 q 65 453 74 489 l 33 453 q 47 533 33 500 q 86 586 61 565 q 254 624 135 624 l 396 619 l 607 615 q 676 625 654 615 q 699 654 697 635 l 731 656 q 698 549 731 582 q 594 517 665 517 l 575 517 z "},"Ě":{"ha":411,"x_min":-125,"x_max":506,"o":"m 278 1008 q 393 1051 331 1051 q 474 1026 443 1051 q 506 958 506 1000 q 488 911 506 931 q 438 892 469 892 q 376 936 397 892 q 336 981 356 981 q 257 550 257 981 l 253 414 q 247 247 253 326 q 231 96 240 168 q 188 -89 214 -29 q 101 -208 154 -165 q -12 -251 47 -251 q -93 -226 -61 -251 q -125 -158 -125 -200 q -108 -110 -125 -128 q -57 -93 -90 -93 q 4 -136 -17 -93 q 46 -181 25 -179 q 125 269 125 -181 l 128 386 q 133 547 128 469 q 149 701 139 625 q 193 889 165 824 q 278 1008 226 965 z "},"ě":{"ha":1153,"x_min":69,"x_max":997,"o":"m 653 125 l 824 125 q 917 149 890 125 q 946 244 946 178 l 978 244 l 978 0 l 600 0 l 600 250 q 770 356 707 271 q 833 567 833 442 q 751 801 833 714 q 533 888 669 888 q 315 801 397 888 q 233 567 233 714 q 295 357 233 442 q 467 250 357 272 l 467 0 l 89 0 l 89 244 l 121 244 q 147 151 121 178 q 243 125 174 125 l 414 125 l 414 207 q 160 331 250 236 q 69 567 69 425 q 198 836 69 735 q 533 938 326 938 q 869 835 740 938 q 997 567 997 733 q 908 333 997 428 q 653 207 819 239 l 653 125 z "},"Ĝ":{"ha":825,"x_min":-19,"x_max":825,"o":"m 825 1126 l 825 1061 l 746 1061 l 343 -28 l 299 -28 l 82 571 l -3 540 l -19 594 l 172 661 l 346 181 l 696 1126 l 825 1126 z "},"ĝ":{"ha":825,"x_min":21,"x_max":742,"o":"m 142 213 q 88 184 119 203 q 21 139 57 165 l 21 246 q 142 308 89 289 q 244 326 194 326 q 404 293 306 326 q 542 260 503 260 q 627 281 581 260 q 742 353 674 301 l 742 244 q 635 187 683 206 q 535 168 588 168 q 390 201 490 168 q 229 233 290 233 q 142 213 190 233 m 144 379 q 21 304 101 361 l 21 411 q 81 446 53 431 q 138 471 110 461 q 243 490 193 490 q 402 458 301 490 q 542 425 503 425 q 626 444 579 425 q 742 517 671 465 l 742 410 q 685 376 717 393 q 632 351 653 360 q 535 333 581 333 q 390 366 489 333 q 236 399 290 399 q 144 379 188 399 z "},"Ğ":{"ha":919,"x_min":29,"x_max":826,"o":"m 443 933 l 826 0 l 29 0 l 413 933 l 443 933 m 388 700 l 128 63 l 646 63 l 388 700 z "},"ğ":{"ha":742,"x_min":4,"x_max":682,"o":"m 4 401 l 343 1121 l 682 401 l 343 -324 l 4 401 m 604 401 l 343 956 l 82 401 l 343 -158 l 604 401 z "},"Ġ":{"ha":1186,"x_min":76,"x_max":1021,"o":"m 567 825 l 565 835 l 565 850 q 629 1006 565 935 q 790 1094 693 1076 l 790 1078 l 792 1053 q 722 894 792 964 q 583 824 651 824 l 578 824 l 567 825 m 903 367 q 1021 274 946 306 q 881 41 943 106 q 743 -24 818 -24 q 654 -1 708 -24 q 571 21 600 21 q 482 -1 539 21 q 396 -24 425 -24 q 308 6 354 -24 q 266 44 290 19 q 221 96 242 68 q 116 294 156 186 q 76 500 76 403 q 162 742 76 649 q 381 836 247 836 q 430 831 403 836 q 486 813 457 825 q 569 789 546 789 q 651 813 594 789 q 756 836 714 836 q 891 809 832 836 q 999 725 950 782 q 897 627 931 682 q 863 503 863 572 q 903 367 863 428 z "}}}
